<?xml version="1.0" encoding="utf-8"?>
<!-- Generator: Adobe Illustrator 27.6.1, SVG Export Plug-In . SVG Version: 6.00 Build 0)  -->
<svg version="1.1" id="Calque_1" xmlns="http://www.w3.org/2000/svg" xmlns:xlink="http://www.w3.org/1999/xlink" x="0px" y="0px"
	 viewBox="0 0 93 93" style="enable-background:new 0 0 93 93;" xml:space="preserve">
<style type="text/css">
	.st0{fill:none;stroke:#BCABDD;stroke-width:1.1345;stroke-miterlimit:10;}
	.st1{fill:#BCABDD;}
</style>
<g>
	<path class="st0" d="M46.5,20.4c-0.1,0-0.3,0-0.4,0.1l-23.7,8.3c-0.5,0.2-0.8,0.7-0.8,1.2l3.8,30.8c0,0.4,0.3,0.7,0.6,0.9l20,10.9
		c0.3,0.2,0.7,0.2,1.1,0l20.1-11c0.3-0.2,0.5-0.5,0.6-0.9l3.8-30.8c0.1-0.5-0.3-1-0.8-1.2l-23.9-8.1C46.7,20.5,46.6,20.4,46.5,20.4z
		 M46.5,22.8l22.7,7.7l-3.6,29.3L46.5,70.2l-19-10.3L24,30.6L46.5,22.8z M46.6,25c-0.5,0-0.9,0.2-1.1,0.7L30.8,57.4
		c-0.3,0.6,0,1.2,0.6,1.5c0.1,0.1,0.3,0.1,0.5,0.1h5c0.4,0,0.8-0.3,1-0.7l2.9-6.1h11.7l2.9,6.1c0.2,0.4,0.6,0.7,1,0.7h5
		c0.6,0,1.1-0.5,1.1-1.1c0-0.2,0-0.3-0.1-0.5L47.6,25.6C47.4,25.2,47,25,46.6,25z M46.5,39.6l2.7,5.8h-5.4L46.5,39.6z"/>
	<path class="st0" d="M46.1,41c-0.4,1.2-0.9,2.2-1.5,3.3c-0.2,0.4,0.1,0.9,0.5,0.9c0.9,0,1.9,0,2.8-0.1c0.2,0,0.4-0.1,0.5-0.3
		c0.1-0.2,0.1-0.5-0.1-0.6c-0.2-0.1-0.3-0.3-0.4-0.4c0.1,0.1,0-0.1,0-0.1c0,0,0-0.1-0.1-0.1c-0.1-0.1-0.1-0.2-0.1-0.3c0-0.1,0,0,0,0
		c0,0,0-0.1,0-0.1c0-0.1-0.1-0.2-0.1-0.3c0,0,0-0.1,0-0.1c0-0.1,0,0.1,0,0c0-0.1,0-0.2,0-0.3c0-0.4-0.5-0.7-0.9-0.5
		c-0.8,0.6-1,1.5-1,2.5c0,0.4,0.4,0.7,0.7,0.5c0.3-0.1,0.4-0.1,0.6,0c0.3,0.1,0.6-0.1,0.7-0.4c0.1-0.3-0.1-0.6-0.4-0.7
		c-0.4-0.1-0.8-0.1-1.2,0c0.2,0.2,0.5,0.4,0.7,0.5c0-0.2,0-0.3,0-0.5c0-0.1,0,0.1,0,0c0,0,0-0.1,0-0.1c0-0.1,0-0.2,0.1-0.3
		c0-0.1,0-0.2,0.1-0.2c0,0.1,0,0,0,0c0,0,0-0.1,0.1-0.1c0,0,0-0.1,0.1-0.1c0,0.1,0,0,0,0c0,0,0.1-0.1,0.1-0.1c0.1-0.1-0.1,0,0,0
		c-0.3-0.2-0.6-0.3-0.9-0.5c0,1,0.4,2,1.2,2.6c0.1-0.3,0.3-0.6,0.4-1C47,44,46,44,45.1,44c0.2,0.3,0.3,0.6,0.5,0.9
		c0.6-1.1,1.2-2.3,1.6-3.6c0.1-0.3-0.1-0.6-0.4-0.7C46.4,40.6,46.2,40.7,46.1,41L46.1,41z"/>
	<path class="st1" d="M70.3,28.3c-0.2,0-0.4,0-0.5,0.1c-0.2-0.1-0.3-0.2-0.6-0.2c-0.1,0-0.1,0-0.1,0c-0.2-0.2-0.4-0.4-0.8-0.4
		c0,0-0.1-0.1-0.1-0.1c0,0-0.1,0-0.1,0c-0.1-0.1-0.3-0.1-0.4-0.1c-0.1,0-0.1,0-0.2,0c-0.2-0.2-0.5-0.4-0.8-0.4
		c-0.3,0-0.4,0.1-0.6,0.2c-1.1-0.8-2.4-1.3-4.1-1.3c-0.1-0.5-0.4-0.9-1.1-0.9c-0.4,0-0.6,0.1-0.8,0.3c0,0,0-0.1-0.1-0.1
		c-0.1-0.3-0.4-0.6-0.7-0.7c-1.5-0.3-3-0.6-4.5-1c-0.1-0.3-0.4-0.5-0.7-0.6c-1.3-0.4-2.6-0.7-3.9-1c-0.1-0.4-0.3-0.8-0.8-1
		c-0.9-0.2-1.9-0.5-2.8-0.7c-0.4-0.1-0.9,0.1-1.2,0.4c-0.5,0.1-0.9,0.1-1.5,0.1c-0.6,0.1-1.1,0.2-1.7,0.4c-0.5,0.2-1,0.5-1.5,0.6
		c-0.5,0.2-1,0.3-1.5,0.5c-0.8,0.3-1.5,0.9-2,1.6c-0.1,0-0.2-0.1-0.3-0.1c-0.3,0-0.5,0.1-0.7,0.2c-1.9,0.3-3.7,0.6-5.4,1.5
		c-0.4,0.2-0.9,0.5-1.2,1c-0.2-0.2-0.4-0.3-0.7-0.3c-0.5,0-0.8,0.2-0.9,0.6c-0.5,0.1-1,0.2-1.5,0.3c-0.1,0-0.3,0.1-0.4,0.1
		c0,0-0.3,0-0.1,0c-0.2,0-0.5,0-0.7,0c-0.6,0-1.2,0.2-1.7,0.5c-0.4,0.2-0.9,0.4-1.3,0.7c-0.8,0.5-0.9,1.6-0.2,2.3
		c0.1,0.1,0.2,0.1,0.3,0.2c-0.2,0.4-0.2,0.9,0,1.2c-0.2,0.4-0.1,1,0.3,1.3c-0.1,0.3-0.1,0.7,0.1,1c-0.3,0.5-0.2,1.2,0.3,1.5
		c-0.1,0.1-0.2,0.2-0.2,0.4c-0.2,0.6-0.2,1.3-0.2,1.9c0.1,0.6,0.1,1.4,0.5,1.9c0,0,0,0,0.1,0.1c0,0.2,0,0.4,0.1,0.7
		c0,0,0.1,0.2,0.1,0.3c0,0.1,0.1,0.2,0.1,0.3c0,0.1,0.1,0.2,0.1,0.3c-0.1,0.1-0.1,0.3-0.1,0.5c0.1,0.8,0.1,1.6,0.2,2.4
		c0,0.8,0,1.6,0,2.4c0,0.5,0.2,1.1,0.5,1.5c0,0,0,0,0,0c0,0.1,0,0.1,0,0.2c0,1.9,0.3,3.7,0.7,5.5c0,0.1,0.1,0.2,0.1,0.2
		c-0.2,0.7-0.1,1.5-0.1,2.2c0.1,0.6,0.2,1.3,0.3,1.9c0.1,0.3,0.1,0.7,0.2,1c0,0.2,0.2,0.5,0.2,0.6c-0.1,0.6,0.2,1.3,0.8,1.4
		c0.5,0.1,1.1,0.3,1.6,0.5c0,0,0,0.1,0,0.1c0.2,0.3,0.4,0.4,0.7,0.5c0.1,0,0.2,0.1,0.3,0.1c0.2,0.1,0.3,0.2,0.5,0.3
		c0.2,0.2,0.4,0.4,0.6,0.6c0.2,0.2,0.4,0.4,0.7,0.5c0,0,0,0,0,0c1.1,0.8,2.2,1.4,3.5,1.9c0.3,0.1,0.5,0.2,0.8,0.3
		c0.1,0,0.2,0.1,0.4,0.1c0.1,0,0.1,0,0.2,0.1c0,0,0.1,0,0.1,0.1c0,0,0.1,0,0.1,0c0.1,0,0.1,0.1,0.2,0.1c0.1,0.1,0.2,0.1,0.4,0.2
		c0,0,0.1,0.1,0.1,0.1c0.1,0.1,0.2,0.2,0.3,0.3c0.2,0.3,0.6,0.4,1,0.3c1.1,1,2.7,1.2,3.9,1.9c1.3,0.8,2.3,2.1,3.9,2.4
		c1.7,0.3,3.3-0.6,4.8-1.3c3.1-1.4,6.1-3,8.9-4.9c0.5,0.1,1-0.3,1.2-0.8c0-0.1,0-0.2,0.1-0.3c0.3,0,0.7-0.1,0.9-0.3
		c0.1-0.2,0.4-0.4,0.5-0.5c0.1-0.1,0.4-0.2,0.6-0.3c0.5-0.3,1-0.6,1.5-0.8c0.4-0.3,0.9-0.5,1.3-0.8c0.1,0.1,0.3,0.1,0.5,0.1
		c1.3,0,2.3-1.3,1.9-2.6c0.2-0.2,0.3-0.5,0.3-0.7c0.1-1.5,0.3-3,0.3-4.5c0.1-0.1,0.2-0.3,0.3-0.5c0.4-2,0.8-4.1,0.7-6.1
		c0-0.1,0-0.2-0.1-0.4c0,0,0,0,0,0c0.3-0.9,0.6-1.9,0.7-2.8c0-0.4,0-0.9,0-1.3c0-0.1,0-0.2,0-0.3c0-0.1,0-0.4,0-0.1
		c0-0.2,0.1-0.5,0.1-0.7c0-0.2,0-0.5-0.1-0.7c0-0.1,0-0.2,0-0.3c0-0.1,0-0.2,0-0.2c0,0,0,0,0,0c0,0,0,0,0-0.1c0-0.1,0-0.3,0.1-0.4
		c0.2-0.5,0.3-1,0.3-1.6c0,0,0-0.1,0-0.1c0-0.1,0-0.1,0.1-0.2c0.2-2.6,0.4-5.2,0.6-7.8c0,0,0,0,0,0C71.7,29.9,71.5,28.3,70.3,28.3z
		 M40.6,24.3c0.9-0.2,1.7-0.7,2.6-0.9c0.6-0.2,1.3-0.2,2-0.3c0,0,0,0.1,0,0.1c-0.1,0-0.2,0-0.3,0.1c-1.3,0.6-2.8,1-4.2,1.1
		c-0.2,0-0.4,0-0.7,0.1C40.2,24.5,40.4,24.4,40.6,24.3z M33.3,27.1c0.6-0.2,1.2-0.3,1.8-0.4c0.3-0.1,0.6-0.1,0.9-0.2
		c0.1,0,0.2,0,0.3,0c0,0.1,0,0.1,0,0.2c-0.9,0.1-1.8,0.3-2.6,0.8C33.6,27.3,33.4,27.2,33.3,27.1C33.2,27.1,33.3,27.1,33.3,27.1z
		 M26.3,30.3c-0.1-0.1-0.2-0.2-0.3-0.3c-0.1-0.1-0.3-0.2-0.4-0.3c0.6,0,1.1-0.1,1.7-0.2C26.9,29.7,26.6,30,26.3,30.3z M51.8,67.5
		c0.4-0.3,0.7-0.5,1-0.8c0.4-0.1,0.8-0.4,1.2-0.7c0.5-0.1,1-0.3,1.4-0.6c0.4-0.2,0.6-0.6,0.5-1c0.8-0.2,1.5-0.4,2.2-0.7
		C56.1,65.2,54,66.4,51.8,67.5z M62.7,58.2c0,0.1,0,0.3,0,0.4c0,0,0,0,0,0c-0.1,0-0.1,0.1-0.2,0.1c0,0,0,0,0,0
		c-0.1,0.1-0.3,0.1-0.4,0.1C61.4,59,61,59,60.4,59c-0.5,0-1,0-1.5,0.2c-0.5-0.3-1.1-0.4-1.6-0.4c-0.6-0.1-1.2-0.1-1.9-0.1
		c0-0.2-0.1-0.3-0.1-0.5c0.1-0.3,0-0.6-0.1-0.9c-0.6-1.4-1.4-2.8-1.8-4.2c-0.1-0.5-0.6-0.8-1.1-0.8c-3.8,0.1-7.5-0.1-11.2-0.5
		c-0.6-0.1-1.1,0.6-1.1,1.1c0,0.3,0.1,0.5,0.3,0.7c0,0-0.1,0.1-0.1,0.1c-0.9,1.6-1.6,3.3-2.2,5.1c-1.2-0.1-2.3-0.1-3.5-0.1
		c-1.3,0-2.7,0.2-3.9-0.3c0-0.3,0-0.5,0-0.8c0.1-0.1,0.2-0.3,0.2-0.4c0.1-0.2,0.1-0.4,0.1-0.7c0.2-0.1,0.3-0.2,0.4-0.4
		c0.6-1.3,1.1-2.5,1.6-3.8c0.3-0.8,0.6-1.7,1-2.4c0.3-0.3,0.5-0.6,0.6-1.1c0-0.1,0-0.3,0-0.4c1.1-0.9,1.8-2.4,2-4
		c0-0.3,0.1-0.6,0.1-0.8c0.4-0.1,0.7-0.5,0.7-0.9c0.2-0.2,0.2-0.5,0.2-0.8c0.1-0.2,0.2-0.4,0.2-0.6c0.2-0.2,0.3-0.5,0.4-0.7
		c0.2-0.1,0.3-0.1,0.5-0.3c0.1-0.1,0.1-0.2,0.2-0.2c0.1-0.2,0.2-0.4,0.2-0.6v0c0,0,0,0,0,0c0.1-0.1,0.2-0.3,0.2-0.5
		c0.7-0.2,1-1,0.7-1.6c0.9-0.1,1.1-1.3,0.6-1.9c0.1-0.1,0.2-0.3,0.3-0.5c0.3-0.5,0.5-1.2,0.9-1.7c0.4-0.6,0.8-1.2,1.2-1.7
		c0.2-0.3,0.2-0.8,0-1.2c0.2-0.1,0.3-0.1,0.4-0.3c0.7-0.7,1-1.6,1.1-2.6c0-0.2,0.1-0.4,0.1-0.6c0-0.1,0-0.2,0.1-0.4c0,0,0-0.1,0-0.1
		c0.2-0.3,0.4-0.6,0.7-0.9c0.3-0.1,0.5-0.2,0.8-0.3c0.2-0.1,0.3-0.2,0.4-0.4c0.3,0.1,0.5,0.2,0.8,0.3c0,0,0.1,0,0.1,0
		c0.1,0,0.1,0.1,0.2,0.1c0,0,0.1,0,0.1,0.1c0,0,0,0,0,0c0,0.1,0.1,0.1,0.1,0.2c0,0,0,0.1,0,0.1c0.1,0.3,0.3,0.5,0.5,0.7
		c0.1,0.8,0.5,1.5,0.8,2.2c0.1,0.2,0.2,0.5,0.4,0.7c0.1,0.2,0.1,0.3,0.2,0.5c0.1,0.3,0.2,0.5,0.3,0.8c0,0.1,0.1,0.2,0.1,0.4
		c0,0.1,0,0.2,0,0.2c0,0.1,0,0.2,0,0.1c0.1,0.6,0.5,1.2,1.1,1.1c0,0,0.1,0,0.1,0c0,0.1,0,0.1,0.1,0.2c0,0,0,0,0,0.1
		c0,0.2,0,0.4,0,0.5c-0.3,0.6-0.1,1.5,0.6,1.7c0.1,0.3,0.3,0.5,0.7,0.6c-0.3,0.5-0.1,1.3,0.5,1.5c-0.2,0.4-0.1,1,0.2,1.3
		c-0.1,0.6,0.2,1.2,0.9,1.3c0,0.4,0.2,0.9,0.6,1.1c0,0.3,0.1,0.6,0.4,0.8c-0.1,0.5,0.1,1.1,0.6,1.3c-0.1,0.5,0.1,1,0.6,1.3
		c0.1,0.2,0.1,0.3,0.3,0.4c0,0.4,0.2,0.7,0.5,0.9c-0.1,0.4,0.1,0.9,0.4,1.1c-0.1,0.5,0.1,1.1,0.7,1.3c0,0.2,0,0.5,0.1,0.7
		c0.3,0.5,0.7,1,0.9,1.5c0.1,0.1,0.1,0.3,0.1,0.4c0,0.1,0,0.2,0,0.3c0,0.3,0.1,0.6,0.3,0.8c0.1,0.1,0.2,0.1,0.2,0.2
		c0,0.4,0.2,0.7,0.5,0.9c0.3,1.1,0.6,2.2,0.8,3.3c0.1,0.4,0.4,0.7,0.7,0.8c0.1,0.4,0.2,0.8,0.4,1.2C62.7,58.1,62.7,58.1,62.7,58.2z"
		/>
</g>
</svg>
