<?xml version="1.0" encoding="utf-8"?>
<!-- Generator: Adobe Illustrator 27.6.1, SVG Export Plug-In . SVG Version: 6.00 Build 0)  -->
<svg version="1.1" id="Calque_1" xmlns="http://www.w3.org/2000/svg" xmlns:xlink="http://www.w3.org/1999/xlink" x="0px" y="0px"
	 viewBox="0 0 93 93" style="enable-background:new 0 0 93 93;" xml:space="preserve">
<style type="text/css">
	.st0{fill:#BCABDD;}
</style>
<g>
	<path class="st0" d="M84,41.5c-0.2-0.2-2.1-1.6-6.2-1.6c-1.1,0-2.2,0.1-3.2,0.3c-0.8-5.4-5.1-7.9-5.3-8l-1.1-0.6l-0.7,1
		c-0.9,1.4-1.7,2.8-2.1,4.4c-0.7,3.1-0.3,5.9,1.3,8.4c-1.9,1-5.1,1.1-5.8,1.2H10.7c-1.3,0-2.4,1.1-2.4,2.4c-0.1,4.4,0.6,8.9,2.1,13
		c1.7,4.5,4.3,7.8,7.7,9.8c3.8,2.3,9.9,3.6,16.8,3.6c3.1,0,6.3-0.3,9.3-0.8c4.3-0.8,8.4-2.3,12.2-4.4c3.1-1.8,5.9-4.1,8.3-6.7
		c4-4.5,6.4-9.4,8.1-13.9c0.2,0,0.5,0,0.7,0c4.4,0,7.1-1.7,8.6-3.2c1-0.9,1.8-2,2.3-3.3l0.3-0.9L84,41.5z"/>
	<path class="st0" d="M20.9,44.9h-4.8c-0.9,0-1.6-0.7-1.6-1.6v-4.8c0-0.9,0.7-1.6,1.6-1.6h4.8c0.9,0,1.6,0.7,1.6,1.6v4.8
		C22.5,44.2,21.8,44.9,20.9,44.9z"/>
	<path class="st0" d="M30.5,44.9h-4.8c-0.9,0-1.6-0.7-1.6-1.6v-4.8c0-0.9,0.7-1.6,1.6-1.6h4.8c0.9,0,1.6,0.7,1.6,1.6v4.8
		C32.1,44.2,31.4,44.9,30.5,44.9z"/>
	<path class="st0" d="M40.1,44.9h-4.8c-0.9,0-1.6-0.7-1.6-1.6v-4.8c0-0.9,0.7-1.6,1.6-1.6h4.8c0.9,0,1.6,0.7,1.6,1.6v4.8
		C41.7,44.2,40.9,44.9,40.1,44.9z"/>
	<path class="st0" d="M49.6,44.9h-4.8c-0.9,0-1.6-0.7-1.6-1.6v-4.8c0-0.9,0.7-1.6,1.6-1.6h4.8c0.9,0,1.6,0.7,1.6,1.6v4.8
		C51.2,44.2,50.5,44.9,49.6,44.9z"/>
	<path class="st0" d="M30.5,35.3h-4.8c-0.9,0-1.6-0.7-1.6-1.6v-4.8c0-0.9,0.7-1.6,1.6-1.6h4.8c0.9,0,1.6,0.7,1.6,1.6v4.8
		C32.1,34.6,31.4,35.3,30.5,35.3z"/>
	<path class="st0" d="M40.1,35.3h-4.8c-0.9,0-1.6-0.7-1.6-1.6v-4.8c0-0.9,0.7-1.6,1.6-1.6h4.8c0.9,0,1.6,0.7,1.6,1.6v4.8
		C41.7,34.6,40.9,35.3,40.1,35.3z"/>
	<path class="st0" d="M49.6,35.3h-4.8c-0.9,0-1.6-0.7-1.6-1.6v-4.8c0-0.9,0.7-1.6,1.6-1.6h4.8c0.9,0,1.6,0.7,1.6,1.6v4.8
		C51.2,34.6,50.5,35.3,49.6,35.3z"/>
	<path class="st0" d="M49.6,25.8h-4.8c-0.9,0-1.6-0.7-1.6-1.6v-4.8c0-0.9,0.7-1.6,1.6-1.6h4.8c0.9,0,1.6,0.7,1.6,1.6v4.8
		C51.2,25,50.5,25.8,49.6,25.8z"/>
	<path class="st0" d="M59.2,44.9h-4.8c-0.9,0-1.6-0.7-1.6-1.6v-4.8c0-0.9,0.7-1.6,1.6-1.6h4.8c0.9,0,1.6,0.7,1.6,1.6v4.8
		C60.8,44.2,60.1,44.9,59.2,44.9z"/>
</g>
</svg>
