<?xml version="1.0" encoding="utf-8"?>
<!-- Generator: Adobe Illustrator 27.6.1, SVG Export Plug-In . SVG Version: 6.00 Build 0)  -->
<svg version="1.1" id="Calque_1" xmlns="http://www.w3.org/2000/svg" xmlns:xlink="http://www.w3.org/1999/xlink" x="0px" y="0px"
	 viewBox="0 0 93 93" style="enable-background:new 0 0 93 93;" xml:space="preserve">
<style type="text/css">
	.st0{fill:#BCABDD;}
</style>
<path class="st0" d="M46.5,15.3C29,15.3,14.9,29.5,14.9,47c0,14.8,10.2,27.2,24,30.7c-0.1-0.4-0.2-0.9-0.2-1.5v-5.4
	c-1.3,0-3.4,0-4,0c-2.2,0-4.1-0.9-5-2.7c-1-1.9-1.2-4.9-3.8-6.7c-0.8-0.6-0.2-1.3,0.7-1.2c1.6,0.5,3,1.6,4.2,3.2
	c1.3,1.7,1.9,2,4.2,2c1.1,0,2.9-0.1,4.5-0.3c0.9-2.2,2.4-4.2,4.2-5.2C33.1,58.9,28,53.6,28,46.5c0-3.1,1.3-6,3.5-8.5
	c-0.7-2.5-1.6-7.5,0.3-9.5c4.7,0,7.6,3.1,8.3,3.9c2.4-0.8,5-1.3,7.7-1.3c2.7,0,5.3,0.5,7.7,1.3c0.7-0.8,3.5-3.9,8.3-3.9
	c1.9,1.9,1,7,0.3,9.5c2.2,2.5,3.5,5.4,3.5,8.5c0,7.1-5,12.4-15.5,13.4c2.9,1.5,5,5.8,5,9v7.2c0,0.3-0.1,0.5-0.1,0.7
	c12.3-4.3,21.2-16,21.2-29.8C78.1,29.5,64,15.3,46.5,15.3z"/>
</svg>
