<?xml version="1.0" encoding="utf-8"?>
<!-- Generator: Adobe Illustrator 27.0.0, SVG Export Plug-In . SVG Version: 6.00 Build 0)  -->
<svg version="1.1" id="Calque_1" xmlns="http://www.w3.org/2000/svg" xmlns:xlink="http://www.w3.org/1999/xlink" x="0px" y="0px"
	 viewBox="0 0 93 93" style="enable-background:new 0 0 93 93;" xml:space="preserve">
<style type="text/css">
	.st0{fill:#BCABDD;}
</style>
<g id="Groupe_7" transform="translate(-1303 -1419)">
	<path id="react" class="st0" d="M1367.7,1456.2c-0.6-0.2-1.2-0.4-1.8-0.6c0.1-0.4,0.2-0.8,0.3-1.2c1.4-6.7,0.5-12-2.6-13.8
		c-2.9-1.7-7.7,0.1-12.6,4.3c-0.5,0.4-0.9,0.8-1.4,1.3c-0.3-0.3-0.6-0.6-0.9-0.9c-5.1-4.5-10.2-6.4-13.2-4.6
		c-2.9,1.7-3.8,6.7-2.6,13c0.1,0.6,0.3,1.2,0.4,1.9c-0.7,0.2-1.4,0.4-2.1,0.7c-6,2.1-10.2,5.3-10.2,8.7c0,3.5,4.6,7,10.7,9.1
		c0.5,0.2,1,0.3,1.5,0.5c-0.2,0.7-0.3,1.3-0.4,2c-1.2,6.2-0.3,11.1,2.7,12.8c3,1.7,8.1,0,13-4.4c0.4-0.3,0.8-0.7,1.2-1.1
		c0.5,0.5,1,0.9,1.5,1.4c4.8,4.1,9.5,5.8,12.4,4.1c3-1.7,4-7,2.7-13.4c-0.1-0.5-0.2-1-0.3-1.5c0.4-0.1,0.7-0.2,1-0.3
		c6.4-2.1,11.1-5.6,11.1-9.1C1378.1,1461.6,1373.7,1458.3,1367.7,1456.2z M1352.6,1446.7c4.2-3.6,8-5,9.8-4
		c1.9,1.1,2.6,5.5,1.4,11.2c-0.1,0.4-0.2,0.7-0.3,1.1c-2.5-0.6-5-1-7.5-1.2c-1.4-2.1-3-4.1-4.8-5.9
		C1351.7,1447.5,1352.1,1447.1,1352.6,1446.7z M1339.7,1470.7c0.6,1,1.1,1.9,1.8,2.9c-1.7-0.2-3.5-0.5-5.2-0.8
		c0.5-1.7,1.1-3.3,1.8-5C1338.6,1468.8,1339.1,1469.8,1339.7,1470.7L1339.7,1470.7z M1336.3,1457.3c1.6-0.4,3.3-0.6,5.1-0.9
		c-0.6,0.9-1.2,1.9-1.7,2.8s-1.1,1.9-1.6,2.9C1337.4,1460.5,1336.8,1458.9,1336.3,1457.3L1336.3,1457.3z M1339.3,1465
		c0.7-1.5,1.5-3,2.4-4.5s1.8-2.9,2.7-4.3c1.7-0.1,3.4-0.2,5.1-0.2s3.5,0.1,5.1,0.2c0.9,1.4,1.9,2.8,2.7,4.3c0.9,1.5,1.7,3,2.4,4.5
		c-0.7,1.5-1.6,3.1-2.4,4.6c-0.8,1.5-1.8,2.9-2.7,4.4c-1.7,0.1-3.4,0.2-5.1,0.2c-1.8,0-3.4-0.1-5.1-0.2c-1-1.4-1.9-2.9-2.7-4.4
		C1340.9,1468.1,1340.1,1466.5,1339.3,1465L1339.3,1465z M1359.5,1470.7c0.6-1,1.1-2,1.6-3c0.7,1.6,1.3,3.3,1.9,4.9
		c-1.7,0.4-3.5,0.7-5.2,0.9C1358.4,1472.6,1358.9,1471.7,1359.5,1470.7L1359.5,1470.7z M1361.1,1462.2c-0.5-1-1.1-2-1.6-2.9
		c-0.6-1-1.1-1.9-1.7-2.8c1.7,0.2,3.4,0.5,5.1,0.9C1362.4,1459,1361.8,1460.6,1361.1,1462.2z M1349.6,1449.6c1.2,1.3,2.3,2.6,3.3,4
		c-2.2-0.1-4.4-0.1-6.6,0C1347.3,1452.2,1348.5,1450.8,1349.6,1449.6z M1336.6,1442.8c1.9-1.1,6,0.5,10.4,4.4
		c0.3,0.2,0.6,0.5,0.8,0.8c-1.7,1.9-3.3,3.8-4.8,5.9c-2.5,0.2-5,0.6-7.5,1.2c-0.1-0.6-0.3-1.1-0.4-1.7
		C1334.2,1447.9,1334.9,1443.8,1336.6,1442.8L1336.6,1442.8z M1333.9,1472.2c-0.5-0.1-0.9-0.3-1.4-0.4c-2.5-0.7-4.9-1.9-7-3.5
		c-1.1-0.8-1.9-2-2.1-3.3c0-2,3.5-4.7,8.6-6.4c0.6-0.2,1.3-0.4,1.9-0.6c0.8,2.4,1.7,4.8,2.7,7.1
		C1335.6,1467.3,1334.7,1469.8,1333.9,1472.2z M1346.9,1483.1c-1.8,1.7-4,3-6.3,3.9c-1.2,0.6-2.7,0.6-3.9,0.1c-1.8-1-2.5-5-1.5-10.3
		c0.1-0.6,0.3-1.2,0.4-1.9c2.5,0.5,5,0.9,7.6,1.1c1.5,2.1,3.1,4.1,4.8,6C1347.6,1482.5,1347.3,1482.8,1346.9,1483.1L1346.9,1483.1z
		 M1349.7,1480.4c-1.1-1.2-2.3-2.6-3.4-4.1c1.1,0,2.2,0.1,3.3,0.1c1.1,0,2.3,0,3.4-0.1C1351.9,1477.8,1350.8,1479.1,1349.7,1480.4z
		 M1364.2,1483.8c-0.1,1.4-0.8,2.6-1.8,3.5c-1.8,1-5.6-0.3-9.6-3.8c-0.5-0.4-0.9-0.8-1.4-1.3c1.7-1.9,3.3-3.9,4.7-6
		c2.6-0.2,5.1-0.6,7.6-1.2c0.1,0.5,0.2,0.9,0.3,1.4C1364.5,1478.8,1364.6,1481.3,1364.2,1483.8z M1366.3,1471.8
		c-0.3,0.1-0.6,0.2-0.9,0.3c-0.8-2.4-1.7-4.8-2.8-7.1c1.1-2.3,2-4.6,2.7-7c0.6,0.2,1.1,0.3,1.7,0.5c5.2,1.8,8.8,4.4,8.8,6.5
		C1375.7,1467.1,1371.8,1469.9,1366.3,1471.8L1366.3,1471.8z M1349.6,1470.1c2.8,0,5.1-2.3,5.1-5.1s-2.3-5.1-5.1-5.1
		c-2.8,0-5.1,2.3-5.1,5.1l0,0C1344.5,1467.8,1346.7,1470.1,1349.6,1470.1z"/>
</g>
</svg>
