<?xml version="1.0" encoding="utf-8"?>
<!-- Generator: Adobe Illustrator 27.0.0, SVG Export Plug-In . SVG Version: 6.00 Build 0)  -->
<svg version="1.1" id="Calque_1" xmlns="http://www.w3.org/2000/svg" xmlns:xlink="http://www.w3.org/1999/xlink" x="0px" y="0px"
	 viewBox="0 0 93 93" style="enable-background:new 0 0 93 93;" xml:space="preserve">
<style type="text/css">
	.st0{fill:#BCABDD;}
</style>
<g id="Groupe_6" transform="translate(-1112 -1332)">
	<path id="icons8-redux" class="st0" d="M1157,1354c-7.8,0-14.1,9-14.1,20.1c-0.1,5.2,1.4,10.3,4.4,14.5c-0.4,2.1,1,4.1,3,4.5
		c2.1,0.4,4.1-1,4.5-3c0.4-2.1-1-4.1-3-4.5c-0.5-0.1-0.9-0.1-1.4,0c-2.1-3.4-3.3-7.4-3.2-11.5c0-8.5,4.5-15.8,9.8-15.8
		c4.5,0,8.4,5.1,9.5,11.9c1.6,0.5,3.1,1.1,4.6,1.8C1170.3,1361.9,1164.3,1354,1157,1354z M1155.4,1370.3c-2.1,0-3.8,1.7-3.8,3.8
		c0,2.1,1.7,3.8,3.8,3.8c1.4,0,2.8-0.8,3.4-2.1c4-0.1,8,1,11.4,3.1c7.5,4.5,11.5,12.3,8.9,17.1c-1,1.7-2.7,2.8-4.6,3.3
		c-3.5,0.8-7.1,0.4-10.4-1.1c-1.2,1.1-2.5,2.1-3.8,3c3.4,1.8,7.1,2.7,11,2.8c1.5,0,3-0.2,4.4-0.6c3-0.7,5.7-2.6,7.2-5.3
		c3.9-7-0.7-17.1-10.4-22.9c-4.3-2.7-9.3-4-14.3-3.7C1157.4,1370.7,1156.4,1370.3,1155.4,1370.3L1155.4,1370.3z M1140.9,1377.2
		c-7.7,5.9-11,14.6-7.5,20.9c1.6,2.7,4.2,4.6,7.2,5.4c1.4,0.4,2.9,0.6,4.4,0.6c4.5-0.1,8.9-1.4,12.8-3.8c4.2-2.4,7.7-6,10-10.4
		c2.1-0.2,3.6-2.1,3.4-4.2c-0.2-2.1-2.1-3.6-4.2-3.4c-2.1,0.2-3.6,2.1-3.4,4.2c0,0.4,0.2,0.9,0.4,1.3c-1.9,3.7-4.8,6.7-8.4,8.8
		c-4.7,2.8-9.8,3.8-13.8,2.8c-1.9-0.4-3.5-1.6-4.6-3.3c-2.1-3.8,0-9.5,4.7-13.9C1141.4,1380.5,1141.1,1378.8,1140.9,1377.2z"/>
</g>
</svg>
