<?xml version="1.0" encoding="utf-8"?>
<!-- Generator: Adobe Illustrator 27.6.1, SVG Export Plug-In . SVG Version: 6.00 Build 0)  -->
<svg version="1.1" id="Calque_1" xmlns="http://www.w3.org/2000/svg" xmlns:xlink="http://www.w3.org/1999/xlink" x="0px" y="0px"
	 viewBox="0 0 93 93" style="enable-background:new 0 0 93 93;" xml:space="preserve">
<style type="text/css">
	.st0{fill:#BCABDD;}
</style>
<path class="st0" d="M69.8,22.4H22.2c-0.7,0-1.2,0.5-1.2,1.2v47.6c0,0.7,0.5,1.2,1.2,1.2h47.6c0.7,0,1.2-0.5,1.2-1.2V23.6
	C71,22.9,70.5,22.4,69.8,22.4z M50.8,49.1h-6v18.5H40V49.1h-6V45h16.7V49.1z M52.1,66.6v-5c0,0,2.7,2,5.9,2c3.2,0,3.1-2.1,3.1-2.4
	c0-3.1-9.2-3.1-9.2-9.9c0-9.3,13.4-5.6,13.4-5.6l-0.2,4.4c0,0-2.2-1.5-4.8-1.5c-2.5,0-3.5,1.2-3.5,2.5c0,3.3,9.3,3,9.3,9.7
	C66.2,71.1,52.1,66.6,52.1,66.6z"/>
</svg>
