<?xml version="1.0" encoding="utf-8"?>
<!-- Generator: Adobe Illustrator 27.6.1, SVG Export Plug-In . SVG Version: 6.00 Build 0)  -->
<svg version="1.1" id="Calque_1" xmlns="http://www.w3.org/2000/svg" xmlns:xlink="http://www.w3.org/1999/xlink" x="0px" y="0px"
	 viewBox="0 0 93 93" style="enable-background:new 0 0 93 93;" xml:space="preserve">
<style type="text/css">
	.st0{fill-rule:evenodd;clip-rule:evenodd;fill:#BCABDD;}
</style>
<path class="st0" d="M46.5,27.5c-8.5,0-13.8,4.2-15.9,12.6c3.2-4.2,6.9-5.8,11.1-4.7c2.4,0.6,4.1,2.3,6.1,4.3
	c3.1,3.1,6.7,6.8,14.6,6.8c8.5,0,13.8-4.2,15.9-12.6c-3.2,4.2-6.9,5.8-11.1,4.7c-2.4-0.6-4.1-2.3-6.1-4.3
	C58,31.2,54.4,27.5,46.5,27.5z M30.6,46.5c-8.5,0-13.8,4.2-15.9,12.6c3.2-4.2,6.9-5.8,11.1-4.7c2.4,0.6,4.1,2.3,6.1,4.3
	c3.1,3.1,6.7,6.8,14.6,6.8c8.5,0,13.8-4.2,15.9-12.6c-3.2,4.2-6.9,5.8-11.1,4.7c-2.4-0.6-4.1-2.3-6.1-4.3
	C42.1,50.1,38.5,46.5,30.6,46.5L30.6,46.5z"/>
</svg>
