<?xml version="1.0" encoding="utf-8"?>
<!-- Generator: Adobe Illustrator 27.0.0, SVG Export Plug-In . SVG Version: 6.00 Build 0)  -->
<svg version="1.1" id="Calque_1" xmlns="http://www.w3.org/2000/svg" xmlns:xlink="http://www.w3.org/1999/xlink" x="0px" y="0px"
	 viewBox="0 0 93 93" style="enable-background:new 0 0 93 93;" xml:space="preserve">
<style type="text/css">
	.st0{fill:#BCABDD;}
</style>
<g id="Groupe_9" transform="translate(-469 -1649)">
	<path id="Tracé_1" class="st0" d="M516,1671c-13.8,0-25,11.2-25,25s11.2,25,25,25s25-11.2,25-25C541,1682.2,529.8,1671,516,1671z
		 M493.5,1696c0-3.2,0.7-6.3,1.9-9.2l10.7,29.4C498.4,1712.5,493.5,1704.6,493.5,1696z M516,1718.5c-2.1,0-4.3-0.3-6.3-0.9l6.7-19.6
		l6.9,18.9c0,0.1,0.1,0.2,0.2,0.3C521.1,1718,518.5,1718.5,516,1718.5z M519.1,1685.5c1.4-0.1,2.6-0.2,2.6-0.2c0.5,0,0.9-0.5,0.9-1
		c0-0.5-0.5-0.9-1-0.9c0,0-3.6,0.3-6,0.3c-2.2,0-5.9-0.3-5.9-0.3c-0.5,0-1,0.4-1,0.9c0,0.5,0.3,0.9,0.9,1c0,0,1.1,0.1,2.4,0.2
		l3.5,9.6l-4.9,14.7l-8.2-24.3c1.4-0.1,2.6-0.2,2.6-0.2c0.5,0,0.9-0.5,0.9-1c0-0.5-0.5-0.9-1-0.9c0,0-3.6,0.3-6,0.3
		c-0.4,0-0.9,0-1.4,0c6.8-10.4,20.7-13.3,31.1-6.5c1,0.7,2,1.4,2.9,2.2c-0.1,0-0.2,0-0.3,0c-2.1,0.1-3.8,1.9-3.8,4
		c0,1.8,1.1,3.4,2.2,5.3c1.2,1.9,1.8,4,1.9,6.2c0,1.9-0.7,4.2-1.7,7.3l-2.2,7.5L519.1,1685.5z M527.3,1715.4l6.9-19.8
		c1.1-2.6,1.7-5.3,1.7-8.1c0-0.8-0.1-1.5-0.2-2.3c1.8,3.3,2.8,7,2.8,10.8C538.5,1704,534.2,1711.4,527.3,1715.4L527.3,1715.4z"/>
</g>
</svg>
