<?xml version="1.0" encoding="utf-8"?>
<!-- Generator: Adobe Illustrator 27.6.1, SVG Export Plug-In . SVG Version: 6.00 Build 0)  -->
<svg version="1.1" id="Calque_1" xmlns="http://www.w3.org/2000/svg" xmlns:xlink="http://www.w3.org/1999/xlink" x="0px" y="0px"
	 viewBox="0 0 93 93" style="enable-background:new 0 0 93 93;" xml:space="preserve">
<style type="text/css">
	.st0{fill:none;}
	.st1{fill:none;stroke:#BCABDD;stroke-width:2;}
	.st2{fill:none;stroke:#BCABDD;stroke-width:1.3101;stroke-miterlimit:10;}
	.st3{fill:#BCABDD;}
</style>
<g id="Rectangle_7" transform="translate(668 1332)">
	<path class="st0" d="M-640-1332h37c15.5,0,28,12.5,28,28v37c0,15.5-12.5,28-28,28h-37c-15.5,0-28-12.5-28-28v-37
		C-668-1319.5-655.5-1332-640-1332z"/>
	<path class="st1" d="M-640-1331h37c14.9,0,27,12.1,27,27v37c0,14.9-12.1,27-27,27h-37c-14.9,0-27-12.1-27-27v-37
		C-667-1318.9-654.9-1331-640-1331z"/>
</g>
<g>
	<path class="st2" d="M46.5,16.4c-0.2,0-0.3,0-0.5,0.1L18.6,26c-0.6,0.2-0.9,0.8-0.9,1.4l4.3,35.5c0.1,0.4,0.3,0.8,0.7,1l23.1,12.6
		c0.4,0.2,0.9,0.2,1.3,0l23.2-12.7c0.4-0.2,0.6-0.6,0.7-1l4.3-35.5c0.1-0.6-0.3-1.2-0.9-1.4l-27.6-9.4
		C46.8,16.4,46.6,16.4,46.5,16.4z M46.5,19.1L72.6,28l-4.1,33.8l-22,12.1L24.6,62l-4.1-33.8L46.5,19.1z M46.6,21.6
		c-0.5,0-1,0.3-1.2,0.8l-17,36.7c-0.3,0.7,0,1.4,0.6,1.7c0.2,0.1,0.4,0.1,0.6,0.1h5.8c0.5,0,1-0.3,1.2-0.8l3.3-7.1h13.5l3.3,7.1
		c0.2,0.5,0.7,0.8,1.2,0.8h5.8c0.7,0,1.3-0.6,1.3-1.3c0-0.2,0-0.4-0.1-0.6l-17-36.7C47.5,22,47.1,21.7,46.6,21.6z M46.5,38.5
		l3.1,6.7h-6.2L46.5,38.5z"/>
	<path class="st2" d="M46,40.2c-0.5,1.3-1,2.5-1.7,3.8c-0.2,0.4,0.1,1,0.6,1c1.1,0,2.2-0.1,3.3-0.1c0.3,0,0.5-0.1,0.6-0.4
		c0.1-0.2,0.1-0.6-0.1-0.7c-0.2-0.1-0.3-0.3-0.5-0.5c0.1,0.1,0-0.1,0-0.1c0,0-0.1-0.1-0.1-0.1c-0.1-0.1-0.1-0.2-0.2-0.3
		c-0.1-0.1,0,0,0,0c0,0,0-0.1-0.1-0.1c0-0.1-0.1-0.2-0.1-0.4c0,0,0-0.1,0-0.2c0-0.1,0,0.1,0,0c0-0.1,0-0.2,0-0.4
		c0-0.5-0.6-0.9-1-0.6c-0.9,0.7-1.1,1.8-1.2,2.9c0,0.4,0.4,0.8,0.8,0.6c0.3-0.1,0.4-0.1,0.7,0c0.3,0.1,0.7-0.1,0.8-0.5
		c0.1-0.4-0.1-0.7-0.5-0.8c-0.4-0.2-1-0.2-1.4,0c0.3,0.2,0.6,0.4,0.8,0.6c0-0.2,0-0.4,0-0.6c0-0.1,0,0.1,0,0c0,0,0-0.1,0-0.1
		c0-0.1,0-0.2,0.1-0.3c0-0.1,0.1-0.2,0.1-0.3c0,0.1,0,0,0,0c0,0,0-0.1,0.1-0.1c0,0,0.1-0.1,0.1-0.1c0,0.1,0,0,0,0
		c0,0,0.1-0.1,0.1-0.1c0.1-0.1-0.1,0.1,0,0c-0.3-0.2-0.7-0.4-1-0.6c0,1.1,0.5,2.3,1.4,3c0.2-0.4,0.3-0.7,0.5-1.1
		c-1.1,0.1-2.2,0.1-3.3,0.1c0.2,0.3,0.4,0.7,0.6,1c0.7-1.3,1.3-2.7,1.8-4.1c0.1-0.3-0.1-0.7-0.5-0.8C46.4,39.6,46.1,39.8,46,40.2
		L46,40.2z"/>
	<path class="st3" d="M74,25.5c-0.2,0-0.4,0.1-0.6,0.1c-0.2-0.1-0.4-0.2-0.7-0.2c-0.1,0-0.1,0-0.2,0c-0.2-0.3-0.5-0.5-0.9-0.5
		c0,0-0.1-0.1-0.1-0.1c0,0-0.1,0-0.1-0.1c-0.2-0.1-0.3-0.1-0.5-0.2c-0.1,0-0.1,0-0.2,0c-0.2-0.3-0.5-0.4-1-0.4
		c-0.3,0-0.5,0.1-0.7,0.2c-1.2-0.9-2.8-1.4-4.8-1.5c-0.1-0.5-0.5-1-1.2-1c-0.4,0-0.7,0.2-0.9,0.4c0-0.1-0.1-0.1-0.1-0.2
		c-0.1-0.4-0.4-0.7-0.8-0.8c-1.8-0.3-3.5-0.7-5.2-1.2c-0.2-0.3-0.4-0.6-0.8-0.7c-1.5-0.5-3-0.9-4.5-1.2c-0.1-0.5-0.4-1-0.9-1.1
		c-1.1-0.3-2.2-0.5-3.3-0.8c-0.5-0.1-1,0.1-1.3,0.4c-0.5,0.1-1.1,0.1-1.7,0.2c-0.7,0.1-1.3,0.2-2,0.5c-0.6,0.2-1.2,0.5-1.8,0.7
		c-0.6,0.2-1.2,0.3-1.8,0.5c-1,0.4-1.8,1-2.3,1.8c-0.1,0-0.2-0.1-0.3-0.1c-0.3,0-0.6,0.1-0.8,0.3c-2.2,0.3-4.3,0.7-6.2,1.7
		c-0.5,0.3-1.1,0.6-1.4,1.1c-0.2-0.2-0.5-0.3-0.8-0.3c-0.5,0-0.9,0.3-1.1,0.6c-0.6,0.1-1.1,0.3-1.7,0.4c-0.2,0-0.3,0.1-0.5,0.1
		c0,0-0.4,0-0.1,0c-0.3,0-0.6,0-0.8,0c-0.7,0-1.3,0.3-2,0.6c-0.5,0.3-1,0.5-1.5,0.8c-0.9,0.6-1,1.8-0.2,2.6c0.1,0.1,0.2,0.2,0.3,0.2
		c-0.2,0.4-0.2,1,0,1.4c-0.2,0.5-0.1,1.2,0.3,1.5c-0.1,0.4-0.1,0.8,0.1,1.1c-0.3,0.6-0.2,1.4,0.3,1.8C19.1,34.7,19,34.8,19,35
		c-0.2,0.7-0.2,1.5-0.2,2.2c0.1,0.7,0.2,1.6,0.6,2.2c0,0,0,0,0.1,0.1c0,0.3,0,0.5,0.1,0.8c0,0,0.1,0.3,0.1,0.3
		c0,0.1,0.1,0.2,0.1,0.3c0,0.1,0.1,0.2,0.1,0.3c-0.1,0.2-0.1,0.3-0.1,0.5c0.1,0.9,0.2,1.8,0.2,2.8c0,0.9,0,1.8,0,2.8
		c0,0.6,0.2,1.2,0.6,1.7c0,0,0,0,0,0c0,0.1,0,0.1,0,0.2c0,2.1,0.3,4.3,0.8,6.3c0,0.1,0.1,0.2,0.1,0.3c-0.2,0.8-0.1,1.7-0.1,2.6
		c0.1,0.8,0.2,1.5,0.3,2.2c0.1,0.4,0.2,0.8,0.2,1.1c0,0.2,0.2,0.6,0.2,0.7c-0.1,0.7,0.2,1.5,0.9,1.6c0.6,0.1,1.2,0.3,1.8,0.6
		c0,0,0,0.1,0,0.1c0.2,0.3,0.4,0.5,0.8,0.6c0.1,0,0.3,0.1,0.4,0.1c0.2,0.1,0.4,0.2,0.5,0.3c0.2,0.2,0.5,0.4,0.7,0.7
		c0.2,0.2,0.5,0.4,0.8,0.6c0,0,0,0,0,0c1.2,0.9,2.6,1.6,4,2.2c0.3,0.1,0.6,0.2,0.9,0.3c0.1,0,0.3,0.1,0.4,0.1c0.1,0,0.1,0,0.2,0.1
		c0,0,0.1,0,0.2,0.1c0,0,0.1,0,0.1,0c0.1,0,0.1,0.1,0.2,0.1c0.1,0.1,0.3,0.1,0.4,0.2c0.1,0,0.1,0.1,0.2,0.1c0.1,0.1,0.3,0.2,0.4,0.4
		c0.3,0.3,0.7,0.4,1.1,0.3c1.2,1.1,3.1,1.4,4.5,2.2c1.5,1,2.6,2.5,4.5,2.8c2,0.3,3.9-0.7,5.6-1.5c3.6-1.6,7-3.5,10.2-5.7
		c0.6,0.1,1.2-0.3,1.4-0.9c0-0.1,0.1-0.2,0.1-0.3c0.4,0,0.8-0.1,1-0.4c0.1-0.2,0.4-0.5,0.5-0.5c0.1-0.1,0.5-0.3,0.6-0.4
		c0.6-0.3,1.1-0.6,1.7-1c0.5-0.3,1.1-0.6,1.5-0.9c0.2,0.1,0.3,0.1,0.5,0.1c1.6,0,2.7-1.6,2.2-2.9c0.2-0.2,0.3-0.5,0.3-0.8
		c0.2-1.7,0.3-3.5,0.4-5.3c0.2-0.2,0.3-0.3,0.3-0.5c0.4-2.3,0.9-4.7,0.8-7.1c0-0.1-0.1-0.3-0.1-0.4c0,0,0,0,0-0.1
		c0.3-1.1,0.7-2.2,0.8-3.3c0.1-0.5,0-1,0-1.5c0-0.1,0-0.3,0-0.4c0-0.1,0-0.5,0-0.2c0-0.3,0.1-0.5,0.1-0.8c0.1-0.3,0-0.6-0.1-0.8
		c0-0.1,0-0.2,0-0.3c0-0.1,0-0.2,0-0.3c0,0,0,0,0,0c0,0,0-0.1,0-0.1c0-0.2,0.1-0.3,0.1-0.5c0.2-0.6,0.4-1.2,0.3-1.8c0,0,0-0.1,0-0.1
		c0-0.1,0.1-0.2,0.1-0.2c0.2-3,0.5-6,0.7-9.1c0,0,0,0,0,0C75.6,27.3,75.4,25.5,74,25.5z M39.7,20.9c1-0.3,2-0.8,3-1.1
		c0.7-0.3,1.5-0.2,2.3-0.3c0,0.1,0,0.1,0,0.2c-0.1,0-0.3,0.1-0.4,0.1c-1.5,0.7-3.2,1.1-4.9,1.3c-0.3,0-0.5,0-0.8,0.1
		C39.2,21.1,39.4,21,39.7,20.9z M31.2,24.1c0.7-0.2,1.4-0.4,2.1-0.5c0.4-0.1,0.7-0.1,1.1-0.2c0.1,0,0.2,0,0.3,0c0,0.1,0,0.2,0,0.3
		c-1,0.1-2,0.4-3,1C31.6,24.3,31.4,24.2,31.2,24.1C31.2,24.1,31.2,24.1,31.2,24.1z M23.2,27.8c-0.1-0.1-0.2-0.2-0.3-0.4
		c-0.1-0.1-0.3-0.3-0.5-0.4c0.7,0,1.3-0.1,2-0.3C23.9,27.1,23.5,27.4,23.2,27.8z M52.6,70.8c0.4-0.3,0.8-0.6,1.2-1
		c0.5-0.2,1-0.4,1.4-0.8c0.6-0.2,1.1-0.4,1.6-0.7c0.5-0.3,0.6-0.7,0.6-1.2c0.9-0.2,1.7-0.4,2.6-0.8C57.6,68,55.2,69.5,52.6,70.8z
		 M65.2,60c0,0.2,0,0.3,0,0.5c0,0,0,0,0,0c-0.1,0-0.1,0.1-0.2,0.1c0,0,0,0,0,0c-0.2,0.1-0.3,0.1-0.5,0.2c-0.7,0.2-1.1,0.2-1.9,0.3
		c-0.6,0-1.2,0-1.7,0.3c-0.6-0.3-1.2-0.4-1.9-0.5c-0.7-0.1-1.4-0.1-2.2-0.2c0-0.2-0.1-0.4-0.1-0.6c0.1-0.3,0-0.7-0.1-1
		c-0.7-1.6-1.7-3.2-2.1-4.9c-0.1-0.5-0.7-1-1.3-1c-4.3,0.1-8.7-0.1-13-0.6c-0.7-0.1-1.3,0.7-1.3,1.3c0,0.3,0.1,0.6,0.3,0.8
		c0,0-0.1,0.1-0.1,0.1c-1,1.9-1.9,3.9-2.6,5.9c-1.4-0.1-2.7-0.1-4.1-0.1c-1.5,0-3.1,0.3-4.5-0.3c0-0.3,0-0.6,0-0.9
		c0.1-0.1,0.2-0.3,0.3-0.5c0.1-0.3,0.1-0.5,0.2-0.8c0.2-0.1,0.3-0.2,0.4-0.4c0.6-1.5,1.3-2.9,1.9-4.4c0.4-1,0.7-1.9,1.1-2.8
		c0.3-0.3,0.5-0.7,0.7-1.2c0-0.2,0-0.3,0-0.4c1.3-1.1,2.1-2.8,2.3-4.6c0-0.3,0.1-0.7,0.2-1c0.5-0.1,0.8-0.6,0.8-1
		c0.2-0.3,0.3-0.6,0.3-0.9c0.1-0.2,0.2-0.4,0.2-0.7c0.3-0.2,0.4-0.5,0.4-0.9c0.2-0.1,0.4-0.2,0.6-0.3c0.1-0.1,0.1-0.2,0.2-0.3
		c0.1-0.2,0.2-0.4,0.2-0.7v-0.1c0,0,0,0,0,0c0.1-0.2,0.2-0.3,0.2-0.5c0.9-0.2,1.1-1.1,0.8-1.8c1.1-0.2,1.3-1.5,0.7-2.2
		c0.1-0.2,0.3-0.3,0.4-0.5c0.4-0.6,0.6-1.3,1-2c0.4-0.7,0.9-1.4,1.4-2c0.3-0.4,0.2-0.9,0-1.3c0.2-0.1,0.3-0.1,0.5-0.3
		c0.8-0.8,1.1-1.9,1.3-3c0-0.2,0.1-0.4,0.1-0.7c0-0.1,0-0.3,0.1-0.4c0,0,0-0.1,0-0.1c0.2-0.4,0.5-0.7,0.8-1c0.3-0.1,0.6-0.2,0.9-0.4
		c0.2-0.1,0.3-0.3,0.4-0.4c0.3,0.1,0.6,0.2,0.9,0.4c0.1,0,0.1,0,0.2,0.1c0.1,0,0.2,0.1,0.2,0.1c0,0,0.1,0.1,0.1,0.1c0,0,0,0,0.1,0.1
		c0.1,0.1,0.1,0.2,0.2,0.3c0,0,0,0.1,0,0.1c0.1,0.3,0.3,0.6,0.6,0.8c0.2,0.9,0.6,1.7,0.9,2.5c0.1,0.3,0.3,0.5,0.4,0.8
		c0.1,0.3,0.2,0.3,0.2,0.6c0.1,0.3,0.2,0.6,0.3,0.9c0,0.1,0.1,0.3,0.1,0.4c0,0.1,0,0.2,0.1,0.3c0,0.2,0,0.2,0,0.1
		c0.1,0.7,0.5,1.3,1.3,1.3c0.1,0,0.1,0,0.2,0c0,0.1,0,0.1,0.1,0.2c0,0,0,0,0.1,0.1c0,0.2,0,0.4,0,0.6c-0.4,0.7-0.1,1.7,0.7,1.9
		c0.1,0.3,0.4,0.6,0.8,0.7c-0.3,0.6-0.1,1.5,0.5,1.8c-0.2,0.5-0.1,1.2,0.3,1.6c-0.1,0.7,0.3,1.4,1.1,1.5c0,0.5,0.2,1,0.7,1.3
		c0,0.4,0.2,0.7,0.4,0.9c-0.1,0.6,0.1,1.3,0.7,1.5c-0.1,0.6,0.1,1.2,0.6,1.5c0.1,0.2,0.2,0.4,0.3,0.5c0,0.4,0.2,0.8,0.5,1.1
		c-0.1,0.5,0.1,1,0.5,1.3c-0.1,0.6,0.2,1.2,0.8,1.5c0,0.3,0,0.5,0.2,0.8c0.4,0.6,0.8,1.1,1.1,1.8c0.1,0.2,0.1,0.3,0.1,0.5
		c0,0.1,0,0.3,0,0.4c0,0.3,0.2,0.7,0.4,0.9c0.1,0.1,0.2,0.1,0.3,0.2c0,0.4,0.2,0.8,0.6,1.1c0.3,1.3,0.6,2.5,1,3.8
		c0.1,0.5,0.5,0.8,0.9,0.9c0.1,0.5,0.3,1,0.5,1.4C65.2,59.9,65.2,59.9,65.2,60z"/>
</g>
</svg>
