<svg xmlns="http://www.w3.org/2000/svg" width="93" height="93" viewBox="0 0 93 93">
  <g id="Groupe_2" data-name="Groupe 2" transform="translate(-517 -1332)">
    <path id="css3-alt" d="M0,32,3.9,76.174,21.429,82l17.533-5.826L42.857,32Zm34.944,8.929-.536,5.279L21.54,51.71l-.033.011H33.951L32.522,68.083l-10.96,3.2L10.536,68.027l-.714-8.248h5.458l.357,4.275,5.871,1.484,6.1-1.719.413-6.875-18.56-.056v-.011l-.022.011-.4-5.167,12.511-5.212.725-.3H8.56l-.647-5.279Z" transform="translate(543 1322)" fill="#bcabdd"/>
    <g id="Rectangle_6" data-name="Rectangle 6" transform="translate(517 1332)" fill="none" stroke="#bcabdd" stroke-width="2">
      <rect width="93" height="93" rx="28" stroke="none"/>
      <rect x="1" y="1" width="91" height="91" rx="27" fill="none"/>
    </g>
  </g>
</svg>
