<?xml version="1.0" encoding="utf-8"?>
<!-- Generator: Adobe Illustrator 27.6.1, SVG Export Plug-In . SVG Version: 6.00 Build 0)  -->
<svg version="1.1" id="Calque_1" xmlns="http://www.w3.org/2000/svg" xmlns:xlink="http://www.w3.org/1999/xlink" x="0px" y="0px"
	 viewBox="0 0 93 93" style="enable-background:new 0 0 93 93;" xml:space="preserve">
<style type="text/css">
	.st0{fill:none;}
	.st1{fill:none;stroke:#BCABDD;stroke-width:2;}
	.st2{fill:#BCABDD;}
</style>
<g id="Rectangle_7" transform="translate(668 1332)">
	<path class="st0" d="M-640-1332h37c15.5,0,28,12.5,28,28v37c0,15.5-12.5,28-28,28h-37c-15.5,0-28-12.5-28-28v-37
		C-668-1319.5-655.5-1332-640-1332z"/>
	<path class="st1" d="M-640-1331h37c14.9,0,27,12.1,27,27v37c0,14.9-12.1,27-27,27h-37c-14.9,0-27-12.1-27-27v-37
		C-667-1318.9-654.9-1331-640-1331z"/>
</g>
<g>
	<path class="st2" d="M79.4,42.1c-0.2-0.1-1.9-1.4-5.5-1.4c-0.9,0-1.9,0.1-2.8,0.2c-0.7-4.7-4.5-6.9-4.7-7l-1-0.5l-0.6,0.9
		c-0.8,1.2-1.5,2.5-1.8,3.9c-0.6,2.7-0.3,5.2,1.1,7.4c-1.7,0.9-4.5,1-5.1,1H15c-1.2,0-2.1,0.9-2.1,2.1c-0.1,3.8,0.5,7.8,1.8,11.4
		c1.5,3.9,3.8,6.9,6.7,8.6c3.3,2,8.7,3.1,14.8,3.1c2.8,0,5.5-0.2,8.2-0.7c3.8-0.7,7.4-2,10.7-3.8c2.7-1.6,5.2-3.6,7.3-5.9
		c3.5-3.9,5.6-8.3,7.2-12.2c0.2,0,0.4,0,0.6,0c3.8,0,6.2-1.5,7.5-2.8c0.9-0.8,1.5-1.8,2-2.9l0.3-0.8L79.4,42.1z"/>
	<path class="st2" d="M24,45.1h-4.2c-0.8,0-1.4-0.6-1.4-1.4v-4.2c0-0.8,0.6-1.4,1.4-1.4H24c0.8,0,1.4,0.6,1.4,1.4v4.2
		C25.4,44.5,24.8,45.1,24,45.1z"/>
	<path class="st2" d="M32.4,45.1h-4.2c-0.8,0-1.4-0.6-1.4-1.4v-4.2c0-0.8,0.6-1.4,1.4-1.4h4.2c0.8,0,1.4,0.6,1.4,1.4v4.2
		C33.8,44.5,33.2,45.1,32.4,45.1z"/>
	<path class="st2" d="M40.8,45.1h-4.2c-0.8,0-1.4-0.6-1.4-1.4v-4.2c0-0.8,0.6-1.4,1.4-1.4h4.2c0.8,0,1.4,0.6,1.4,1.4v4.2
		C42.2,44.5,41.6,45.1,40.8,45.1z"/>
	<path class="st2" d="M49.2,45.1H45c-0.8,0-1.4-0.6-1.4-1.4v-4.2c0-0.8,0.6-1.4,1.4-1.4h4.2c0.8,0,1.4,0.6,1.4,1.4v4.2
		C50.6,44.5,50,45.1,49.2,45.1z"/>
	<path class="st2" d="M32.4,36.7h-4.2c-0.8,0-1.4-0.6-1.4-1.4v-4.2c0-0.8,0.6-1.4,1.4-1.4h4.2c0.8,0,1.4,0.6,1.4,1.4v4.2
		C33.8,36.1,33.2,36.7,32.4,36.7z"/>
	<path class="st2" d="M40.8,36.7h-4.2c-0.8,0-1.4-0.6-1.4-1.4v-4.2c0-0.8,0.6-1.4,1.4-1.4h4.2c0.8,0,1.4,0.6,1.4,1.4v4.2
		C42.2,36.1,41.6,36.7,40.8,36.7z"/>
	<path class="st2" d="M49.2,36.7H45c-0.8,0-1.4-0.6-1.4-1.4v-4.2c0-0.8,0.6-1.4,1.4-1.4h4.2c0.8,0,1.4,0.6,1.4,1.4v4.2
		C50.6,36.1,50,36.7,49.2,36.7z"/>
	<path class="st2" d="M49.2,28.3H45c-0.8,0-1.4-0.6-1.4-1.4v-4.2c0-0.8,0.6-1.4,1.4-1.4h4.2c0.8,0,1.4,0.6,1.4,1.4v4.2
		C50.6,27.7,50,28.3,49.2,28.3z"/>
	<path class="st2" d="M57.6,45.1h-4.2c-0.8,0-1.4-0.6-1.4-1.4v-4.2c0-0.8,0.6-1.4,1.4-1.4h4.2c0.8,0,1.4,0.6,1.4,1.4v4.2
		C59.1,44.5,58.4,45.1,57.6,45.1z"/>
</g>
</svg>
