<svg xmlns="http://www.w3.org/2000/svg" width="93" height="93" viewBox="0 0 93 93">
  <g id="Groupe_4" data-name="Groupe 4" transform="translate(-799 -1332)">
    <g id="Rectangle_8" data-name="Rectangle 8" transform="translate(799 1332)" fill="none" stroke="#bcabdd" stroke-width="2">
      <rect width="93" height="93" rx="28" stroke="none"/>
      <rect x="1" y="1" width="91" height="91" rx="27" fill="none"/>
    </g>
    <path id="figma" d="M14,9.355A9.355,9.355,0,0,1,23.355,0H39.406a9.356,9.356,0,0,1,5.132,17.177,9.356,9.356,0,0,1-5.132,17.178h-.2a9.321,9.321,0,0,1-6.291-2.431v8.619A9.5,9.5,0,0,1,23.405,50a9.356,9.356,0,0,1-5.183-17.177,9.357,9.357,0,0,1,0-15.645A9.346,9.346,0,0,1,14,9.355ZM29.848,18.71H23.355a6.291,6.291,0,0,0-.04,12.581h6.534ZM32.913,25A6.291,6.291,0,0,0,39.2,31.291h.2a6.291,6.291,0,0,0,0-12.581h-.2A6.291,6.291,0,0,0,32.913,25Zm-9.558,9.355h-.04a6.291,6.291,0,1,0,.091,12.581,6.436,6.436,0,0,0,6.443-6.392V34.355Zm0-31.291a6.29,6.29,0,1,0,0,12.581h6.494V3.064Zm9.558,12.581h6.494a6.29,6.29,0,1,0,0-12.581H32.913Z" transform="translate(814 1354)" fill="#bcabdd"/>
  </g>
</svg>
