<?xml version="1.0" encoding="utf-8"?>
<!-- Generator: Adobe Illustrator 27.6.1, SVG Export Plug-In . SVG Version: 6.00 Build 0)  -->
<svg version="1.1" id="Calque_1" xmlns="http://www.w3.org/2000/svg" xmlns:xlink="http://www.w3.org/1999/xlink" x="0px" y="0px"
	 viewBox="0 0 93 93" style="enable-background:new 0 0 93 93;" xml:space="preserve">
<style type="text/css">
	.st0{fill:none;}
	.st1{fill:none;stroke:#BCABDD;stroke-width:1.9415;}
	.st2{fill:#BCABDD;}
</style>
<g id="Rectangle_12" transform="translate(1515 1330)">
	<path class="st0" d="M-1486.6-1328.3h36.2c15.2,0,27.4,12,27.4,27v35.6c0,14.9-12.2,27-27.4,27h-36.2c-15.2,0-27.4-12-27.4-27
		v-35.6C-1514-1316.2-1501.8-1328.3-1486.6-1328.3z"/>
	<path class="st1" d="M-1486.6-1327.3h36.2c14.6,0,26.4,11.7,26.4,26v35.6c0,14.3-11.8,26-26.4,26h-36.2c-14.6,0-26.4-11.7-26.4-26
		v-35.6C-1513-1315.7-1501.2-1327.3-1486.6-1327.3z"/>
</g>
<path class="st2" d="M76.2,43.7l-27-27c-1.6-1.6-4.1-1.6-5.6,0c0,0,0,0,0,0L38,22.4l7.1,7.1c1.7-0.6,3.6-0.1,4.9,1.1
	c1.3,1.3,1.7,3.2,1.1,4.9l6.9,6.9c1.7-0.6,3.6-0.2,4.9,1.1c1.9,1.8,1.9,4.8,0,6.7c0,0,0,0,0,0C61,52,58,52,56.2,50.2
	c-1.4-1.4-1.8-3.4-1-5.2l-6.4-6.4l0,16.8c0.5,0.2,0.9,0.5,1.3,0.9c1.9,1.9,1.9,4.9,0,6.7c0,0,0,0,0,0c-1.9,1.9-4.9,1.9-6.7,0
	c-1.9-1.8-1.9-4.8,0-6.7c0.4-0.4,1-0.8,1.6-1v-17c-0.6-0.2-1.1-0.6-1.6-1c-1.4-1.4-1.7-3.5-1-5.2l-7-7L16.8,43.6
	c-1.6,1.6-1.6,4.1,0,5.6c0,0,0,0,0,0l27,27c1.6,1.6,4.1,1.6,5.6,0l26.9-26.9C77.8,47.8,77.8,45.3,76.2,43.7"/>
</svg>
