<?xml version="1.0" encoding="utf-8"?>
<!-- Generator: Adobe Illustrator 27.0.0, SVG Export Plug-In . SVG Version: 6.00 Build 0)  -->
<svg version="1.1" id="Calque_1" xmlns="http://www.w3.org/2000/svg" xmlns:xlink="http://www.w3.org/1999/xlink" x="0px" y="0px"
	 viewBox="0 0 93 93" style="enable-background:new 0 0 93 93;" xml:space="preserve">
<style type="text/css">
	.st0{fill:#BCABDD;}
</style>
<g id="Groupe_5" transform="translate(-935 -1388)">
	<path id="github" class="st0" d="M973.2,1450.3c0,0.2-0.2,0.4-0.5,0.4s-0.6-0.1-0.6-0.4c0-0.2,0.2-0.4,0.5-0.4
		S973.2,1450,973.2,1450.3z M969.9,1449.8c-0.1,0.2,0.1,0.4,0.4,0.5c0.2,0.1,0.5,0,0.6-0.2s-0.1-0.4-0.4-0.5
		C970.3,1449.5,970.1,1449.6,969.9,1449.8z M974.5,1449.6c-0.3,0.1-0.5,0.3-0.5,0.5s0.3,0.3,0.6,0.3s0.5-0.3,0.5-0.5
		C975.1,1449.7,974.8,1449.6,974.5,1449.6z M981.3,1410c-14.3,0-25.3,10.9-25.3,25.2c-0.1,11.2,7,21.1,17.5,24.7
		c1.3,0.2,1.8-0.6,1.8-1.3c0-0.6,0-4.2,0-6.3c0,0-7.2,1.6-8.8-3.1c0,0-1.2-3-2.9-3.8c0,0-2.4-1.6,0.2-1.6c1.7,0.2,3.1,1.2,4,2.7
		c2.3,4,6.1,2.8,7.5,2.2c0.1-1.3,0.7-2.5,1.7-3.5c-5.8-0.6-11.6-1.5-11.6-11.4c-0.1-2.3,0.8-4.5,2.4-6.1c-0.8-2.3-0.7-4.8,0.3-7
		c2.2-0.7,7.1,2.8,7.1,2.8c4.2-1.2,8.7-1.2,13,0c0,0,5-3.5,7.1-2.8c1,2.2,1.1,4.7,0.3,7c1.7,1.8,2.7,3.3,2.7,6.1
		c0,10-6.1,10.8-11.9,11.4c1.3,1.3,1.9,3,1.8,4.8c0,3.5,0,7.8,0,8.6c0,0.7,0.5,1.5,1.8,1.3c10.5-3.6,17.5-13.6,17.3-24.7
		C1007.3,1420.9,995.7,1410,981.3,1410z M966,1445.7c-0.1,0.1-0.1,0.3,0.1,0.5c0.2,0.2,0.4,0.2,0.5,0.1s0.1-0.3-0.1-0.5
		C966.4,1445.6,966.2,1445.5,966,1445.7z M964.9,1444.8c-0.1,0.1,0,0.3,0.2,0.4c0.1,0.1,0.3,0.1,0.4-0.1l0,0c0.1-0.1,0-0.3-0.2-0.4
		C965.2,1444.7,965,1444.7,964.9,1444.8L964.9,1444.8z M968.3,1448.5c-0.2,0.1-0.1,0.4,0.1,0.6c0.2,0.2,0.5,0.3,0.7,0.1
		c0.1-0.1,0.1-0.4-0.1-0.6C968.7,1448.4,968.4,1448.3,968.3,1448.5L968.3,1448.5z M967.1,1447c-0.2,0.1-0.2,0.4,0,0.6
		s0.4,0.3,0.6,0.2c0.2-0.2,0.2-0.5,0-0.6C967.5,1447,967.3,1446.8,967.1,1447z"/>
</g>
</svg>
