<?xml version="1.0" encoding="utf-8"?>
<!-- Generator: Adobe Illustrator 27.0.0, SVG Export Plug-In . SVG Version: 6.00 Build 0)  -->
<svg version="1.1" id="Calque_1" xmlns="http://www.w3.org/2000/svg" xmlns:xlink="http://www.w3.org/1999/xlink" x="0px" y="0px"
	 viewBox="0 0 93 93" style="enable-background:new 0 0 93 93;" xml:space="preserve">
<style type="text/css">
	.st0{fill:#BCABDD;}
	.st1{fill:none;}
	.st2{fill:none;stroke:#BCABDD;stroke-width:2;}
</style>
<g id="Groupe_1" transform="translate(-362 -1332)">
	<path id="html5" class="st0" d="M387,1354l3.9,44.2l17.5,5.8l17.6-5.8l3.9-44.2H387z M421.4,1368.3h-20.5l0.5,5.5h19.6l-1.5,16.6
		l-10.9,3v0h-0.1l-11-3.1l-0.7-8.5h5.3l0.4,4.3l6,1.6l6-1.6l0.7-6.9h-18.6L395,1363h26.9L421.4,1368.3z"/>
	<g id="Rectangle_5" transform="translate(362 1332)">
		<path class="st1" d="M28,0h37c15.5,0,28,12.5,28,28v37c0,15.5-12.5,28-28,28H28C12.5,93,0,80.5,0,65V28C0,12.5,12.5,0,28,0z"/>
		<path class="st2" d="M28,1h37c14.9,0,27,12.1,27,27v37c0,14.9-12.1,27-27,27H28C13.1,92,1,79.9,1,65V28C1,13.1,13.1,1,28,1z"/>
	</g>
</g>
</svg>
