<?xml version="1.0" encoding="utf-8"?>
<!-- Generator: Adobe Illustrator 27.6.1, SVG Export Plug-In . SVG Version: 6.00 Build 0)  -->
<svg version="1.1" id="Calque_1" xmlns="http://www.w3.org/2000/svg" xmlns:xlink="http://www.w3.org/1999/xlink" x="0px" y="0px"
	 viewBox="0 0 93 93" style="enable-background:new 0 0 93 93;" xml:space="preserve">
<style type="text/css">
	.st0{fill:none;}
	.st1{fill:none;stroke:#BCABDD;stroke-width:2;}
	.st2{fill-rule:evenodd;clip-rule:evenodd;fill:#BCABDD;}
</style>
<g id="Rectangle_7" transform="translate(668 1332)">
	<path class="st0" d="M-640-1332h37c15.5,0,28,12.5,28,28v37c0,15.5-12.5,28-28,28h-37c-15.5,0-28-12.5-28-28v-37
		C-668-1319.5-655.5-1332-640-1332z"/>
	<path class="st1" d="M-640-1331h37c14.9,0,27,12.1,27,27v37c0,14.9-12.1,27-27,27h-37c-14.9,0-27-12.1-27-27v-37
		C-667-1318.9-654.9-1331-640-1331z"/>
</g>
<g>
	<path class="st2" d="M37.6,65c0,0-2.6,1.5,1.8,2c5.4,0.6,8.1,0.5,14-0.6c0,0,1.6,1,3.7,1.8C43.9,74,27.2,67.9,37.6,65z M36,57.6
		c0,0-2.9,2.1,1.5,2.6c5.7,0.6,10.3,0.6,18.1-0.9c0,0,1.1,1.1,2.8,1.7C42.4,65.7,24.5,61.4,36,57.6z"/>
	<path class="st2" d="M49.7,45c3.3,3.8-0.9,7.2-0.9,7.2s8.3-4.3,4.5-9.7c-3.6-5-6.3-7.5,8.5-16.1C61.8,26.5,38.6,32.2,49.7,45z"/>
	<path class="st2" d="M67.2,70.5c0,0,1.9,1.6-2.1,2.8c-7.7,2.3-31.9,3-38.6,0.1c-2.4-1.1,2.1-2.5,3.5-2.8c1.5-0.3,2.3-0.3,2.3-0.3
		c-2.7-1.9-17.4,3.7-7.5,5.3C52,80.1,74.2,73.7,67.2,70.5L67.2,70.5z M38.8,49.9c0,0-12.3,2.9-4.4,4c3.4,0.4,10.1,0.3,16.3-0.2
		c5.1-0.4,10.2-1.3,10.2-1.3s-1.8,0.8-3.1,1.7c-12.5,3.3-36.7,1.8-29.7-1.6C34.1,49.6,38.8,49.9,38.8,49.9L38.8,49.9z M61,62.3
		c12.7-6.6,6.8-13,2.7-12.1c-1,0.2-1.5,0.4-1.5,0.4s0.4-0.6,1.1-0.8c8.1-2.9,14.4,8.4-2.6,12.9C60.7,62.6,60.9,62.4,61,62.3z"/>
	<path class="st2" d="M53.3,12.6c0,0,7,7-6.7,17.9c-11,8.7-2.5,13.6,0,19.3c-6.4-5.8-11.1-10.9-8-15.6
		C43.3,27.2,56.1,23.8,53.3,12.6L53.3,12.6z"/>
	<path class="st2" d="M40.1,80.2c12.2,0.8,31-0.4,31.4-6.2c0,0-0.9,2.2-10.1,3.9c-10.4,2-23.3,1.7-30.9,0.5
		C30.5,78.4,32.1,79.7,40.1,80.2z"/>
</g>
</svg>
