<?xml version="1.0" encoding="utf-8"?>
<!-- Generator: Adobe Illustrator 27.0.0, SVG Export Plug-In . SVG Version: 6.00 Build 0)  -->
<svg version="1.1" id="Calque_1" xmlns="http://www.w3.org/2000/svg" xmlns:xlink="http://www.w3.org/1999/xlink" x="0px" y="0px"
	 viewBox="0 0 93 93" style="enable-background:new 0 0 93 93;" xml:space="preserve">
<style type="text/css">
	.st0{fill:none;}
	.st1{fill:none;stroke:#BCABDD;stroke-width:2;}
	.st2{fill:#BCABDD;}
</style>
<g id="Groupe_3" transform="translate(-668 -1332)">
	<g id="Rectangle_7" transform="translate(668 1332)">
		<path class="st0" d="M28,0h37c15.5,0,28,12.5,28,28v37c0,15.5-12.5,28-28,28H28C12.5,93,0,80.5,0,65V28C0,12.5,12.5,0,28,0z"/>
		<path class="st1" d="M28,1h37c14.9,0,27,12.1,27,27v37c0,14.9-12.1,27-27,27H28C13.1,92,1,79.9,1,65V28C1,13.1,13.1,1,28,1z"/>
	</g>
	<path id="square-js" class="st2" d="M734.6,1354h-39.3c-3,0-5.4,2.4-5.4,5.4v39.3c0,3,2.4,5.4,5.4,5.4h39.3c3,0,5.4-2.4,5.4-5.4
		v-39.3C740,1356.4,737.6,1354,734.6,1354z M717.2,1393c0,4.9-2.9,7.1-7,7.1c-3,0.2-5.8-1.5-7.1-4.3l3.8-2.3c0.7,1.3,1.4,2.4,3,2.4
		c1.5,0,2.5-0.6,2.5-3v-16h4.7L717.2,1393L717.2,1393z M728.3,1400.1c-4.4,0-7.2-2.1-8.6-4.8l3.8-2.2c0.9,1.8,2.7,2.9,4.6,2.9
		c1.9,0,3.2-1,3.2-2.3c0-1.6-1.3-2.2-3.4-3.1l-1.2-0.5c-3.4-1.4-5.6-3.3-5.6-7.1c0-3.5,2.7-6.2,6.9-6.2c2.8-0.2,5.4,1.3,6.7,3.8
		l-3.7,2.3c-0.5-1.2-1.7-2-3-2c-1.1-0.1-2.1,0.7-2.2,1.8c0,0.1,0,0.1,0,0.2c0,1.4,0.9,2,2.9,2.9l1.2,0.5c4,1.7,6.2,3.5,6.2,7.4
		C736.1,1397.8,732.8,1400.1,728.3,1400.1L728.3,1400.1z"/>
</g>
</svg>
