<?xml version="1.0" encoding="utf-8"?>
<!-- Generator: Adobe Illustrator 27.0.0, SVG Export Plug-In . SVG Version: 6.00 Build 0)  -->
<svg version="1.1" id="Calque_1" xmlns="http://www.w3.org/2000/svg" xmlns:xlink="http://www.w3.org/1999/xlink" x="0px" y="0px"
	 viewBox="0 0 93 93" style="enable-background:new 0 0 93 93;" xml:space="preserve">
<style type="text/css">
	.st0{fill:#BCABDD;}
</style>
<path class="st0" d="M70.3,21.5H27.5c-2,0-3.6,1.6-3.6,3.6v42.7c0,2,1.6,3.6,3.6,3.6h42.8c2,0,3.6-1.6,3.6-3.6V25.1
	C73.8,23.2,72.2,21.5,70.3,21.5z M39,64.3h-7.4V40.5H39L39,64.3L39,64.3z M35.3,37.2c-2.4,0-4.3-1.9-4.3-4.3c0-2.4,1.9-4.3,4.3-4.3
	c2.4,0,4.3,1.9,4.3,4.3C39.6,35.3,37.7,37.2,35.3,37.2z M66.7,64.3h-7.4V52.7c0-2.8-0.1-6.3-3.8-6.3c-3.9,0-4.4,3-4.4,6.1v11.8h-7.4
	V40.5h7.1v3.3h0.1c1-1.9,3.4-3.8,7-3.8c7.5,0,8.9,4.9,8.9,11.4V64.3z"/>
</svg>
