<?xml version="1.0" encoding="utf-8"?>
<!-- Generator: Adobe Illustrator 27.6.1, SVG Export Plug-In . SVG Version: 6.00 Build 0)  -->
<svg version="1.1" id="Calque_1" xmlns="http://www.w3.org/2000/svg" xmlns:xlink="http://www.w3.org/1999/xlink" x="0px" y="0px"
	 viewBox="0 0 93 93" style="enable-background:new 0 0 93 93;" xml:space="preserve">
<style type="text/css">
	.st0{fill:none;}
	.st1{fill:none;stroke:#BCABDD;stroke-width:1.9415;}
	.st2{fill:#BCABDD;}
</style>
<g id="Rectangle_12" transform="translate(1515 1330)">
	<path class="st0" d="M-1486.6-1328.3h36.2c15.2,0,27.4,12,27.4,27v35.6c0,14.9-12.2,27-27.4,27h-36.2c-15.2,0-27.4-12-27.4-27
		v-35.6C-1514-1316.2-1501.8-1328.3-1486.6-1328.3z"/>
	<path class="st1" d="M-1486.6-1327.3h36.2c14.6,0,26.4,11.7,26.4,26v35.6c0,14.3-11.8,26-26.4,26h-36.2c-14.6,0-26.4-11.7-26.4-26
		v-35.6C-1513-1315.7-1501.2-1327.3-1486.6-1327.3z"/>
</g>
<path class="st2" d="M43.9,15.3c1.6-0.9,3.6-0.9,5.2,0L73,28.8c1.5,0.8,2.5,2.5,2.5,4.2v27c0,1.8-1.1,3.5-2.7,4.3L49,77.7
	c-1.7,0.9-3.7,0.9-5.3-0.1l-7.1-4.1c-0.5-0.3-1-0.5-1.4-1c0.3-0.4,0.8-0.5,1.3-0.6c1-0.3,1.9-0.8,2.8-1.3c0.2-0.2,0.5-0.1,0.7,0
	l6.1,3.5c0.4,0.2,0.9-0.1,1.2-0.3l23.3-13.2c0.3-0.1,0.4-0.4,0.4-0.8V33.1c0-0.4-0.2-0.7-0.5-0.8L46.9,18.9c-0.3-0.2-0.6-0.2-0.9,0
	L22.3,32.3c-0.3,0.1-0.5,0.5-0.5,0.8v26.7c0,0.3,0.1,0.6,0.4,0.8l6.3,3.6c1.2,0.6,2.6,1,4,0.5c1.2-0.4,1.9-1.6,1.9-2.8l0-26.6
	c0-0.4,0.3-0.7,0.7-0.7h3c0.4,0,0.7,0.4,0.7,0.8l0,26.7c0,2.4-1,5-3.2,6.1c-2.7,1.4-6.1,1.1-8.7-0.2l-6.8-3.8
	c-1.6-0.8-2.7-2.5-2.7-4.3V33c0-1.8,1-3.4,2.6-4.3L43.9,15.3z M50.8,34c3.5-0.2,7.2-0.1,10.3,1.6c2.4,1.3,3.7,4,3.8,6.7
	c-0.1,0.4-0.4,0.6-0.8,0.5c-1,0-2,0-3,0c-0.4,0-0.7-0.4-0.7-0.8c-0.3-1.3-1-2.5-2.2-3.2c-1.8-0.9-4-0.9-6-0.9
	c-1.5,0.1-3.1,0.2-4.3,1.1c-1,0.7-1.2,2-0.9,3c0.3,0.8,1.2,1,1.9,1.2c4.2,1.1,8.6,1,12.7,2.4c1.7,0.6,3.3,1.7,3.9,3.5
	c0.8,2.4,0.4,5.2-1.3,7.1c-1.4,1.6-3.4,2.4-5.4,2.9c-2.6,0.6-5.4,0.6-8.1,0.3c-2.5-0.3-5.2-1-7.1-2.7c-1.7-1.4-2.5-3.7-2.4-5.9
	c0-0.4,0.4-0.6,0.7-0.6h3c0.4,0,0.7,0.3,0.7,0.7c0.2,1.2,0.6,2.5,1.7,3.2c2.1,1.3,4.6,1.2,7,1.3c1.9-0.1,4.1-0.1,5.7-1.4
	c0.8-0.7,1.1-2,0.9-3c-0.2-0.9-1.2-1.3-2-1.6c-4.1-1.3-8.6-0.8-12.6-2.3c-1.7-0.6-3.2-1.7-3.9-3.4c-0.9-2.4-0.5-5.4,1.4-7.2
	C45.6,34.9,48.2,34.2,50.8,34L50.8,34z"/>
</svg>
