<svg xmlns="http://www.w3.org/2000/svg" width="93" height="93" viewBox="0 0 93 93">
  <g id="Groupe_7" data-name="Groupe 7" transform="translate(-1303 -1419)">
    <g id="Rectangle_11" data-name="Rectangle 11" transform="translate(1303 1419)" fill="none" stroke="#bcabdd" stroke-width="2">
      <rect width="93" height="93" rx="28" stroke="none"/>
      <rect x="1" y="1" width="91" height="91" rx="27" fill="none"/>
    </g>
    <path id="react" d="M46.672,48.216q-.9-.3-1.808-.569c.1-.413.19-.826.279-1.239,1.373-6.651.469-12-2.578-13.76-2.935-1.685-7.723.067-12.566,4.285-.48.413-.949.848-1.4,1.283-.3-.29-.614-.58-.926-.859C22.6,32.848,17.51,30.951,14.464,32.725c-2.924,1.7-3.794,6.73-2.567,13.024.123.625.257,1.239.413,1.864-.714.2-1.417.424-2.076.658C4.274,50.336,0,53.595,0,56.965c0,3.482,4.553,6.975,10.747,9.1.5.167,1,.335,1.518.48-.167.67-.312,1.328-.446,2.009-1.172,6.194-.257,11.1,2.667,12.789,3.013,1.741,8.08-.045,13.013-4.364.391-.346.781-.7,1.172-1.083.491.48,1,.937,1.518,1.384,4.777,4.107,9.5,5.77,12.41,4.085,3.013-1.741,4-7.02,2.723-13.448q-.151-.737-.335-1.507c.357-.1.7-.212,1.049-.324,6.439-2.132,11.1-5.58,11.1-9.118C57.14,53.584,52.743,50.3,46.672,48.216Zm-15.1-9.475c4.152-3.616,8.024-5.033,9.787-4.018,1.886,1.083,2.611,5.457,1.428,11.2-.078.379-.156.748-.257,1.116a57.131,57.131,0,0,0-7.511-1.183,56.386,56.386,0,0,0-4.754-5.926C30.7,39.522,31.126,39.131,31.572,38.741ZM18.66,62.757c.569.971,1.149,1.942,1.763,2.89a50.538,50.538,0,0,1-5.178-.837,52.133,52.133,0,0,1,1.819-4.966c.513.982,1.038,1.953,1.6,2.913ZM15.278,49.332c1.607-.357,3.315-.647,5.089-.87-.591.926-1.172,1.875-1.719,2.835s-1.083,1.92-1.585,2.9c-.7-1.663-1.295-3.292-1.786-4.866Zm3.058,7.689c.737-1.54,1.54-3.047,2.388-4.531s1.763-2.924,2.723-4.341c1.674-.123,3.382-.19,5.122-.19s3.46.067,5.122.19q1.423,2.109,2.712,4.319t2.422,4.509q-1.122,2.31-2.411,4.553c-.848,1.484-1.752,2.924-2.7,4.352-1.663.123-3.393.179-5.145.179S25.121,66,23.481,65.9q-1.456-2.126-2.745-4.352c-.859-1.484-1.652-2.991-2.4-4.531Zm20.155,5.714c.569-.982,1.1-1.975,1.629-2.98A51.805,51.805,0,0,1,42.007,64.7a49.022,49.022,0,0,1-5.245.893c.6-.937,1.172-1.9,1.73-2.857ZM40.1,54.2c-.525-.982-1.06-1.964-1.618-2.924s-1.116-1.886-1.707-2.812a51.356,51.356,0,0,1,5.122.893A49.391,49.391,0,0,1,40.1,54.2ZM28.592,41.642a49.007,49.007,0,0,1,3.3,4c-2.21-.1-4.431-.1-6.64,0C26.349,44.2,27.476,42.859,28.592,41.642ZM15.646,34.8c1.875-1.094,6.038.469,10.424,4.352.279.246.558.513.848.781a56.7,56.7,0,0,0-4.788,5.926,58.828,58.828,0,0,0-7.5,1.161c-.145-.569-.268-1.149-.391-1.73-1.049-5.4-.357-9.475,1.406-10.491ZM12.912,64.219c-.469-.134-.926-.279-1.384-.435A22.762,22.762,0,0,1,4.5,60.3a5.008,5.008,0,0,1-2.1-3.337c0-2.042,3.527-4.654,8.616-6.428.636-.223,1.283-.424,1.931-.614a59.343,59.343,0,0,0,2.734,7.1A61,61,0,0,0,12.912,64.219ZM25.925,75.156a20.427,20.427,0,0,1-6.294,3.94,4.939,4.939,0,0,1-3.94.145c-1.774-1.027-2.511-4.966-1.507-10.267.123-.625.257-1.25.413-1.864A55.833,55.833,0,0,0,22.175,68.2,58.9,58.9,0,0,0,27,74.163c-.357.346-.714.681-1.071.993Zm2.734-2.712c-1.138-1.228-2.277-2.589-3.382-4.051,1.071.045,2.176.067,3.292.067,1.149,0,2.277-.022,3.393-.078A48.127,48.127,0,0,1,28.659,72.444Zm14.586,3.348A4.96,4.96,0,0,1,41.4,79.285c-1.774,1.027-5.558-.312-9.642-3.817-.469-.4-.937-.837-1.417-1.283a55.208,55.208,0,0,0,4.71-5.982,55.015,55.015,0,0,0,7.611-1.172c.112.458.212.915.3,1.362A20.344,20.344,0,0,1,43.245,75.792Zm2.031-12c-.312.1-.625.2-.949.29a56.693,56.693,0,0,0-2.846-7.12,56.41,56.41,0,0,0,2.734-7.02c.58.167,1.138.346,1.674.525,5.2,1.786,8.85,4.442,8.85,6.473C54.74,59.13,50.845,61.954,45.277,63.8ZM28.57,62.121a5.111,5.111,0,1,0-5.111-5.111,5.111,5.111,0,0,0,5.111,5.111Z" transform="translate(1321 1407.988)" fill="#bcabdd"/>
  </g>
</svg>
