<svg xmlns="http://www.w3.org/2000/svg" width="93" height="93" viewBox="0 0 93 93">
  <g id="Groupe_6" data-name="Groupe 6" transform="translate(-1112 -1332)">
    <g id="Rectangle_10" data-name="Rectangle 10" transform="translate(1112 1332)" fill="none" stroke="#bcabdd" stroke-width="2">
      <rect width="93" height="93" rx="28" stroke="none"/>
      <rect x="1" y="1" width="91" height="91" rx="27" fill="none"/>
    </g>
    <path id="icons8-redux" d="M26,2c-7.792,0-14.132,9.014-14.132,20.1a24.591,24.591,0,0,0,4.414,14.537,3.841,3.841,0,1,0,3.121-3.053A20.956,20.956,0,0,1,16.221,22.1C16.221,13.559,20.7,6.348,26,6.348c4.478,0,8.358,5.15,9.461,11.89a29.318,29.318,0,0,1,4.594,1.769C39.323,9.9,33.3,2,26,2ZM24.374,18.306a3.8,3.8,0,1,0,3.414,5.48,20.327,20.327,0,0,1,11.384,3.127c7.457,4.471,11.512,12.289,8.854,17.072a7.077,7.077,0,0,1-4.554,3.265A16.9,16.9,0,0,1,33.06,46.176,30.622,30.622,0,0,1,29.225,49.2,24.741,24.741,0,0,0,40.2,52a17.008,17.008,0,0,0,4.393-.55A11.313,11.313,0,0,0,51.826,46.1c3.9-7.01-.68-17.075-10.418-22.913a24.539,24.539,0,0,0-14.278-3.69,3.8,3.8,0,0,0-2.756-1.189ZM9.873,25.18c-7.7,5.947-11,14.648-7.514,20.917A11.313,11.313,0,0,0,9.588,51.45a17,17,0,0,0,4.393.55,25.4,25.4,0,0,0,12.792-3.786,25.891,25.891,0,0,0,9.968-10.382,3.815,3.815,0,1,0-3.832-2.13,21.732,21.732,0,0,1-8.372,8.781c-4.67,2.8-9.839,3.835-13.826,2.766a7.076,7.076,0,0,1-4.552-3.265c-2.1-3.783,0-9.457,4.658-13.879A28.83,28.83,0,0,1,9.873,25.18Z" transform="translate(1131.027 1352)" fill="#bcabdd"/>
  </g>
</svg>
