<?xml version="1.0" encoding="utf-8"?>
<!-- Generator: Adobe Illustrator 27.0.0, SVG Export Plug-In . SVG Version: 6.00 Build 0)  -->
<svg version="1.1" id="Calque_1" xmlns="http://www.w3.org/2000/svg" xmlns:xlink="http://www.w3.org/1999/xlink" x="0px" y="0px"
	 viewBox="0 0 93 93" style="enable-background:new 0 0 93 93;" xml:space="preserve">
<style type="text/css">
	.st0{fill:none;}
	.st1{fill:none;stroke:#BCABDD;stroke-width:2;}
	.st2{fill:#BCABDD;}
</style>
<g id="Groupe_8" transform="translate(-1515 -1330)">
	<g id="Rectangle_12" transform="translate(1515 1330)">
		<path class="st0" d="M27.5,0.9h37c15.5,0,28,12.5,28,28v37c0,15.5-12.5,28-28,28h-37c-15.5,0-28-12.5-28-28v-37
			C-0.5,13.4,12,0.9,27.5,0.9z"/>
		<path class="st1" d="M27.5,1.9h37c14.9,0,27,12.1,27,27v37c0,14.9-12.1,27-27,27h-37c-14.9,0-27-12.1-27-27v-37
			C0.5,14,12.6,1.9,27.5,1.9z"/>
	</g>
	<path id="sass" class="st2" d="M1559.9,1389.7C1559.9,1389.8,1559.9,1389.8,1559.9,1389.7z M1585.9,1380.6c-2.1,0-4.2,0.5-6,1.4
		c-0.6-1-1-2-1.3-3.1c-0.2-0.9-0.2-1.8-0.1-2.6c0.2-1,0.5-1.9,0.8-2.8c0-0.1-0.1-0.7-1.5-0.7c-1.3,0-2.5,0.3-2.6,0.6
		c-0.2,0.6-0.4,1.3-0.6,2c-0.2,1.2-2.7,5.6-4.1,7.8c-0.4-0.7-0.7-1.5-0.9-2.3c-0.2-0.9-0.2-1.8-0.1-2.6c0.2-1,0.5-1.9,0.8-2.8
		c0-0.1-0.1-0.7-1.5-0.7c-1.3,0-2.5,0.3-2.6,0.6s-0.3,1.2-0.6,2s-3.5,8.1-4.4,9.9c-0.4,1-0.8,1.7-1.1,2.2c0,0.1-0.1,0.1-0.1,0.2
		c0-0.1,0.1-0.1,0.1-0.1c-0.2,0.4-0.4,0.7-0.4,0.7v0c-0.2,0.3-0.4,0.6-0.5,0.6c-0.2-0.7-0.1-1.4,0-2.1c0.5-2.5,1.6-6.4,1.6-6.6
		c0-0.1,0.2-0.8-0.8-1.1c-0.5-0.2-1-0.1-1.4,0.2c-0.1,0-0.1,0.2-0.1,0.2s1.1-4.4-2-4.4c-1.9,0-4.6,2.1-5.9,4
		c-0.8,0.4-2.6,1.4-4.5,2.4c-0.7,0.4-1.5,0.8-2.2,1.2c-0.1-0.1-0.1-0.1-0.1-0.2c-3.7-4-10.6-6.8-10.3-12.1
		c0.1-1.9,0.8-7.1,13.2-13.3c10.2-5.1,18.4-3.7,19.8-0.6c2,4.4-4.4,12.7-15,13.9c-4,0.4-6.2-1.1-6.7-1.7c-0.6-0.6-0.6-0.6-0.8-0.5
		c-0.3,0.2-0.1,0.7,0,1.1c0.8,1.5,2.2,2.6,3.8,3c1.9,0.6,6.7,1,12.4-1.2c6.4-2.5,11.4-9.4,10-15.2c-1.5-5.9-11.2-7.8-20.4-4.5
		c-5.5,1.9-11.4,5-15.7,9c-5.1,4.8-5.9,8.9-5.5,10.6c1.2,6.1,9.6,10.1,13,13.1c-0.2,0.1-0.3,0.2-0.5,0.3c-1.7,0.8-8.1,4.2-9.8,7.8
		c-1.8,4,0.3,6.9,1.7,7.3c4.3,1,8.8-0.8,11.2-4.5c2-3.1,2.4-7,1-10.4c0,0,0-0.1,0-0.1c0.4-0.3,0.9-0.5,1.3-0.8
		c0.9-0.5,1.7-1,2.4-1.4c-0.5,1.4-0.8,2.9-0.9,4.4c-0.2,2.3,0.8,5.3,2,6.4c0.4,0.4,1,0.6,1.6,0.5c1.4,0,2.1-1.2,2.8-2.6
		c0.9-1.7,1.7-3.7,1.7-3.7s-1,5.4,1.7,5.4c1,0,2-1.3,2.4-1.9v0c0,0,0,0,0.1-0.1c0.1-0.2,0.2-0.2,0.2-0.2v0c0.4-0.7,1.3-2.2,2.6-4.8
		c1.7-3.3,3.3-7.4,3.3-7.4c0.2,0.9,0.4,1.8,0.6,2.7c0.4,1.1,0.9,2.1,1.4,3.1c-0.4,0.5-0.6,0.9-0.6,0.9c0,0,0,0,0,0
		c-0.3,0.4-0.7,0.9-1,1.3c-1.1,1.2-2.2,2.5-3.1,3.9c-0.3,0.5-0.2,1.1,0.3,1.4c0.5,0.3,1.1,0.4,1.6,0.3c0.8,0,1.7-0.2,2.4-0.6
		c0.7-0.3,1.5-0.6,2.1-1.1c1.4-0.9,2.1-2.5,2-4.1c-0.1-1-0.3-2-0.8-2.9c0.1-0.2,0.2-0.3,0.4-0.5c1.4-2,2.6-4.1,3.7-6.3
		c0.2,0.9,0.4,1.8,0.6,2.7c0.3,0.9,0.7,1.8,1.2,2.7c-1.6,1.2-2.8,2.8-3.6,4.6c-0.8,2.2-0.2,3.2,1,3.4c0.6,0,1.2-0.1,1.8-0.4
		c0.8-0.3,1.6-0.7,2.2-1.2c1.3-1,2.6-2.3,2.5-4.1c-0.1-0.8-0.2-1.7-0.6-2.4c2.1-0.8,4.3-1.1,6.5-0.8c5.8,0.7,6.9,4.3,6.7,5.8
		c-0.2,1.1-0.9,2-1.8,2.6c-0.4,0.2-0.5,0.3-0.5,0.5c0.1,0.3,0.2,0.3,0.6,0.2c1.8-0.6,3-2.2,3.2-4
		C1595.3,1384.5,1591.9,1380.6,1585.9,1380.6L1585.9,1380.6z M1541.2,1395.7c-1.9,2.1-4.6,2.9-5.8,2.2c-1.2-0.7-0.8-3.8,1.6-6
		c1.4-1.3,2.9-2.4,4.5-3.4c0.3-0.2,0.7-0.4,1.2-0.7c0.1-0.1,0.1-0.1,0.1-0.1c0.1-0.1,0.2-0.1,0.3-0.2
		C1544,1390.4,1543.3,1393.5,1541.2,1395.7L1541.2,1395.7z M1555.2,1386.2c-0.7,1.6-2.1,5.8-2.9,5.6c-0.7-0.2-1.2-3.4-0.1-6.5
		c0.5-1.5,1.3-2.9,2.3-4.2c1.1-1.2,2.2-1.6,2.5-1.1C1557.2,1380.6,1555.6,1385.2,1555.2,1386.2z M1566.7,1391.7
		c-0.3,0.1-0.5,0.2-0.7,0.2c-0.1-0.1,0.1-0.2,0.1-0.2s1.4-1.6,2-2.3c0.3-0.4,0.7-0.9,1.1-1.4c0,0.1,0,0.1,0,0.2
		C1569.3,1389.9,1567.6,1391.2,1566.7,1391.7L1566.7,1391.7z M1575.7,1389.7c-0.2-0.1-0.2-0.6,0.5-2.2c0.5-1,1.2-1.8,2-2.6
		c0.1,0.4,0.2,0.7,0.2,1.1C1578.4,1387.8,1577.3,1389.2,1575.7,1389.7z"/>
</g>
</svg>
