<svg xmlns="http://www.w3.org/2000/svg" width="93" height="93" viewBox="0 0 93 93">
  <g id="Groupe_8" data-name="Groupe 8" transform="translate(-1515 -1330)">
    <g id="Rectangle_12" data-name="Rectangle 12" transform="translate(1515 1330)" fill="none" stroke="#bcabdd" stroke-width="2">
      <rect width="93" height="93" rx="28" stroke="none"/>
      <rect x="1" y="1" width="91" height="91" rx="27" fill="none"/>
    </g>
    <path id="sass" d="M31.442,53.8C31.411,53.867,31.38,53.917,31.442,53.8Zm25.949-9.062a13.661,13.661,0,0,0-6.041,1.406A12.829,12.829,0,0,1,50,43.014a8.369,8.369,0,0,1-.115-2.635,22.191,22.191,0,0,1,.792-2.833c-.01-.115-.146-.687-1.489-.7s-2.5.26-2.634.615A12.793,12.793,0,0,0,46,39.452c-.24,1.219-2.686,5.572-4.072,7.843A8.087,8.087,0,0,1,41,45a8.369,8.369,0,0,1-.115-2.635,22.191,22.191,0,0,1,.792-2.833c-.01-.115-.146-.687-1.488-.7s-2.5.26-2.635.615-.281,1.187-.552,1.989-3.53,8.051-4.383,9.937c-.437.958-.812,1.729-1.083,2.25-.042.083-.073.135-.094.177.031-.052.052-.1.052-.083-.229.448-.365.7-.365.7v.01c-.177.333-.375.635-.469.635a4.321,4.321,0,0,1,.031-2.073c.49-2.521,1.646-6.437,1.635-6.572-.01-.073.219-.75-.76-1.114a1.226,1.226,0,0,0-1.375.229c-.083,0-.146.208-.146.208s1.052-4.416-2.02-4.416c-1.917,0-4.583,2.1-5.893,4.01-.823.448-2.6,1.417-4.479,2.448-.719.4-1.458.8-2.156,1.187-.052-.052-.094-.1-.146-.156C11.623,44.837,4.74,42.025,5.032,36.681c.1-1.948.781-7.062,13.235-13.27,10.208-5.083,18.368-3.687,19.773-.583,2.021,4.427-4.363,12.666-14.963,13.853-4.04.448-6.164-1.114-6.7-1.7-.552-.615-.635-.646-.844-.531-.344.187-.125.729,0,1.052a6.276,6.276,0,0,0,3.832,3.01c1.948.635,6.685.99,12.413-1.229,6.435-2.479,11.444-9.385,9.975-15.165-1.5-5.875-11.237-7.8-20.447-4.531-5.488,1.948-11.423,5.01-15.692,9C.547,31.338-.264,35.473.069,37.2c1.186,6.135,9.642,10.135,13.026,13.093-.167.094-.323.177-.469.26-1.7.844-8.143,4.218-9.756,7.781-1.823,4.041.3,6.937,1.7,7.333a10.4,10.4,0,0,0,11.2-4.541,11.277,11.277,0,0,0,1-10.364c-.01-.031-.031-.052-.042-.083.437-.26.885-.521,1.333-.781.863-.51,1.707-.979,2.447-1.385a16.178,16.178,0,0,0-.875,4.437c-.187,2.291.76,5.26,1.989,6.427a2.186,2.186,0,0,0,1.6.521c1.437,0,2.083-1.187,2.8-2.6.885-1.729,1.667-3.739,1.667-3.739s-.979,5.437,1.7,5.437c.978,0,1.957-1.26,2.4-1.906v.01s.021-.042.073-.125c.1-.156.156-.25.156-.25V56.69c.4-.677,1.26-2.229,2.561-4.791,1.687-3.312,3.3-7.447,3.3-7.447a20.961,20.961,0,0,0,.646,2.687,25.16,25.16,0,0,0,1.4,3.125c-.4.542-.635.854-.635.854a.032.032,0,0,0,.01.021c-.312.417-.667.865-1.031,1.3a36.764,36.764,0,0,0-3.125,3.916,1.064,1.064,0,0,0,.292,1.427,2.532,2.532,0,0,0,1.634.26,7.223,7.223,0,0,0,2.448-.562,8.562,8.562,0,0,0,2.1-1.1,4.7,4.7,0,0,0,2.021-4.145,8.626,8.626,0,0,0-.76-2.937c.115-.167.24-.344.354-.521a55.371,55.371,0,0,0,3.655-6.314,20.961,20.961,0,0,0,.646,2.687,18.371,18.371,0,0,0,1.186,2.677,11.449,11.449,0,0,0-3.551,4.593c-.771,2.219-.167,3.218.969,3.448a3.5,3.5,0,0,0,1.781-.365,8.276,8.276,0,0,0,2.249-1.156c1.3-.958,2.561-2.3,2.478-4.125a7.749,7.749,0,0,0-.562-2.437,12.713,12.713,0,0,1,6.467-.75c5.8.677,6.935,4.3,6.716,5.812a3.851,3.851,0,0,1-1.844,2.6c-.406.25-.531.344-.5.531.052.271.24.26.583.2a4.525,4.525,0,0,0,3.155-4.031c.167-3.541-3.238-7.437-9.27-7.406Zm-44.7,15.072c-1.915,2.094-4.6,2.885-5.758,2.219-1.239-.721-.75-3.8,1.613-6.033a30.861,30.861,0,0,1,4.519-3.375c.281-.167.687-.417,1.187-.719.083-.052.125-.073.125-.073.094-.062.2-.115.3-.177a8.314,8.314,0,0,1-1.989,8.156Zm13.995-9.52c-.667,1.635-2.072,5.8-2.926,5.583-.729-.187-1.177-3.364-.146-6.489a14.366,14.366,0,0,1,2.281-4.177c1.051-1.177,2.207-1.552,2.478-1.083.365.615-1.271,5.145-1.687,6.166Zm11.562,5.52c-.281.146-.542.24-.667.167-.094-.052.115-.25.115-.25s1.448-1.552,2.021-2.26c.333-.417.719-.906,1.134-1.448,0,.052.01.1.01.167-.014,1.864-1.8,3.125-2.616,3.625Zm8.914-2.031c-.208-.146-.177-.635.521-2.156a8.1,8.1,0,0,1,1.979-2.552,3.769,3.769,0,0,1,.2,1.125,3.672,3.672,0,0,1-2.7,3.583Z" transform="translate(1528.996 1334.996)" fill="#bcabdd"/>
  </g>
</svg>
