<?xml version="1.0" encoding="utf-8"?>
<!-- Generator: Adobe Illustrator 27.6.1, SVG Export Plug-In . SVG Version: 6.00 Build 0)  -->
<svg version="1.1" id="Calque_1" xmlns="http://www.w3.org/2000/svg" xmlns:xlink="http://www.w3.org/1999/xlink" x="0px" y="0px"
	 viewBox="0 0 93 93" style="enable-background:new 0 0 93 93;" xml:space="preserve">
<style type="text/css">
	.st0{fill:none;}
	.st1{fill:none;stroke:#BCABDD;stroke-width:1.9415;}
	.st2{fill:#BCABDD;}
</style>
<g id="Groupe_8" transform="translate(-1515 -1330)">
	<g id="Rectangle_12" transform="translate(1515 1330)">
		<path class="st0" d="M28.4,1.7h36.2c15.2,0,27.4,12,27.4,27v35.6c0,14.9-12.2,27-27.4,27H28.4c-15.2,0-27.4-12-27.4-27V28.7
			C1,13.8,13.2,1.7,28.4,1.7z"/>
		<path class="st1" d="M28.4,2.7h36.2c14.6,0,26.4,11.7,26.4,26v35.6c0,14.3-11.8,26-26.4,26H28.4C13.8,90.3,2,78.7,2,64.3V28.7
			C2,14.3,13.8,2.7,28.4,2.7z"/>
	</g>
	<path id="sass" class="st2" d="M1560.4,1388.3C1560.4,1388.4,1560.4,1388.4,1560.4,1388.3z M1585.9,1379.6c-2.1,0-4.1,0.5-5.9,1.3
		c-0.6-1-1-1.9-1.3-3c-0.2-0.9-0.2-1.7-0.1-2.5c0.2-1,0.5-1.8,0.8-2.7c0-0.1-0.1-0.7-1.5-0.7c-1.3,0-2.4,0.3-2.5,0.6
		c-0.2,0.6-0.4,1.3-0.6,1.9c-0.2,1.2-2.6,5.4-4,7.5c-0.4-0.7-0.7-1.4-0.9-2.2c-0.2-0.9-0.2-1.7-0.1-2.5c0.2-1,0.5-1.8,0.8-2.7
		c0-0.1-0.1-0.7-1.5-0.7c-1.3,0-2.4,0.3-2.5,0.6c-0.1,0.3-0.3,1.2-0.6,1.9c-0.3,0.8-3.4,7.8-4.3,9.5c-0.4,1-0.8,1.6-1.1,2.1
		c0,0.1-0.1,0.1-0.1,0.2c0-0.1,0.1-0.1,0.1-0.1c-0.2,0.4-0.4,0.7-0.4,0.7l0,0c-0.2,0.3-0.4,0.6-0.5,0.6c-0.2-0.7-0.1-1.3,0-2
		c0.5-2.4,1.6-6.2,1.6-6.4c0-0.1,0.2-0.8-0.8-1.1c-0.5-0.2-1-0.1-1.4,0.2c-0.1,0-0.1,0.2-0.1,0.2s1.1-4.2-2-4.2
		c-1.9,0-4.5,2-5.8,3.9c-0.8,0.4-2.5,1.3-4.4,2.3c-0.7,0.4-1.5,0.8-2.2,1.2c-0.1-0.1-0.1-0.1-0.1-0.2c-3.6-3.9-10.4-6.5-10.1-11.7
		c0.1-1.8,0.8-6.8,12.9-12.8c10-4.9,18-3.6,19.4-0.6c2,4.2-4.3,12.2-14.7,13.4c-3.9,0.4-6.1-1.1-6.6-1.6c-0.6-0.6-0.6-0.6-0.8-0.5
		c-0.3,0.2-0.1,0.7,0,1.1c0.8,1.4,2.2,2.5,3.7,2.9c1.9,0.6,6.6,1,12.1-1.2c6.3-2.4,11.2-9.1,9.8-14.6c-1.5-5.7-11-7.5-20-4.3
		c-5.4,1.8-11.2,4.8-15.4,8.7c-5,4.6-5.8,8.6-5.4,10.2c1.2,5.9,9.4,9.7,12.7,12.6c-0.2,0.1-0.3,0.2-0.5,0.3c-1.7,0.8-7.9,4-9.6,7.5
		c-1.8,3.9,0.3,6.6,1.7,7c4.2,1,8.6-0.8,11-4.3c2-3,2.3-6.7,1-10v-0.1c0.4-0.3,0.9-0.5,1.3-0.8c0.9-0.5,1.7-1,2.3-1.3
		c-0.5,1.3-0.8,2.8-0.9,4.2c-0.2,2.2,0.8,5.1,2,6.2c0.4,0.4,1,0.6,1.6,0.5c1.4,0,2.1-1.2,2.7-2.5c0.9-1.6,1.7-3.6,1.7-3.6
		s-1,5.2,1.7,5.2c1,0,2-1.3,2.3-1.8l0,0c0,0,0,0,0.1-0.1c0.1-0.2,0.2-0.2,0.2-0.2l0,0c0.4-0.7,1.3-2.1,2.5-4.6
		c1.7-3.2,3.2-7.1,3.2-7.1c0.2,0.9,0.4,1.7,0.6,2.6c0.4,1.1,0.9,2,1.4,3c-0.4,0.5-0.6,0.9-0.6,0.9l0,0c-0.3,0.4-0.7,0.9-1,1.3
		c-1.1,1.2-2.2,2.4-3,3.8c-0.3,0.5-0.2,1.1,0.3,1.3c0.5,0.3,1.1,0.4,1.6,0.3c0.8,0,1.7-0.2,2.3-0.6c0.7-0.3,1.5-0.6,2.1-1.1
		c1.4-0.9,2.1-2.4,2-3.9c-0.1-1-0.3-1.9-0.8-2.8c0.1-0.2,0.2-0.3,0.4-0.5c1.4-1.9,2.5-3.9,3.6-6.1c0.2,0.9,0.4,1.7,0.6,2.6
		c0.3,0.9,0.7,1.7,1.2,2.6c-1.6,1.2-2.7,2.7-3.5,4.4c-0.8,2.1-0.2,3.1,1,3.3c0.6,0,1.2-0.1,1.8-0.4c0.8-0.3,1.6-0.7,2.2-1.2
		c1.3-1,2.5-2.2,2.4-3.9c-0.1-0.8-0.2-1.6-0.6-2.3c2.1-0.8,4.2-1.1,6.4-0.8c5.7,0.7,6.8,4.1,6.6,5.6c-0.2,1.1-0.9,1.9-1.8,2.5
		c-0.4,0.2-0.5,0.3-0.5,0.5c0.1,0.3,0.2,0.3,0.6,0.2c1.8-0.6,2.9-2.1,3.1-3.9C1595.1,1383.3,1591.7,1379.6,1585.9,1379.6
		L1585.9,1379.6z M1542.1,1394.1c-1.9,2-4.5,2.8-5.7,2.1c-1.2-0.7-0.8-3.7,1.6-5.8c1.4-1.3,2.8-2.3,4.4-3.3c0.3-0.2,0.7-0.4,1.2-0.7
		c0.1-0.1,0.1-0.1,0.1-0.1c0.1-0.1,0.2-0.1,0.3-0.2C1544.9,1389,1544.2,1392,1542.1,1394.1L1542.1,1394.1z M1555.8,1385
		c-0.7,1.5-2.1,5.6-2.8,5.4c-0.7-0.2-1.2-3.3-0.1-6.3c0.5-1.4,1.3-2.8,2.3-4c1.1-1.2,2.2-1.5,2.4-1.1
		C1557.8,1379.6,1556.2,1384,1555.8,1385z M1567.1,1390.3c-0.3,0.1-0.5,0.2-0.7,0.2c-0.1-0.1,0.1-0.2,0.1-0.2s1.4-1.5,2-2.2
		c0.3-0.4,0.7-0.9,1.1-1.3c0,0.1,0,0.1,0,0.2C1569.6,1388.5,1568,1389.8,1567.1,1390.3L1567.1,1390.3z M1575.9,1388.3
		c-0.2-0.1-0.2-0.6,0.5-2.1c0.5-1,1.2-1.7,2-2.5c0.1,0.4,0.2,0.7,0.2,1.1C1578.5,1386.5,1577.5,1387.9,1575.9,1388.3z"/>
</g>
</svg>
