<?xml version="1.0" encoding="utf-8"?>
<!-- Generator: Adobe Illustrator 27.0.0, SVG Export Plug-In . SVG Version: 6.00 Build 0)  -->
<svg version="1.1" id="Calque_1" xmlns="http://www.w3.org/2000/svg" xmlns:xlink="http://www.w3.org/1999/xlink" x="0px" y="0px"
	 viewBox="0 0 93 93" style="enable-background:new 0 0 93 93;" xml:space="preserve">
<style type="text/css">
	.st0{fill:none;}
	.st1{fill:none;stroke:#BCABDD;stroke-width:2;}
	.st2{fill:#BCABDD;}
	.st3{fill-rule:evenodd;clip-rule:evenodd;fill:#FFFFFF;}
</style>
<g id="Groupe_3" transform="translate(-668 -1332)">
	<g id="Rectangle_7" transform="translate(668 1332)">
		<path class="st0" d="M28,0.1h37c15.5,0,28,12.5,28,28v37c0,15.5-12.5,28-28,28H28c-15.5,0-28-12.5-28-28v-37
			C0,12.6,12.5,0.1,28,0.1z"/>
		<path class="st1" d="M28,1.1h37c14.9,0,27,12.1,27,27v37c0,14.9-12.1,27-27,27H28c-14.9,0-27-12.1-27-27v-37
			C1,13.2,13.1,1.1,28,1.1z"/>
	</g>
	<path class="st2" d="M694.4,1353.6h40.2c2.7,0,4.9,2.2,4.9,4.9v40.2c0,2.7-2.2,4.9-4.9,4.9h-40.2c-2.7,0-4.9-2.2-4.9-4.9v-40.2
		C689.5,1355.8,691.7,1353.6,694.4,1353.6z"/>
	<path class="st3" d="M720.5,1393.3v4.9c0.8,0.4,1.8,0.7,2.8,0.9c1.1,0.2,2.2,0.3,3.4,0.3s2.2-0.1,3.3-0.3s2-0.6,2.7-1.1
		c0.8-0.5,1.5-1.2,1.9-2c0.4-0.9,0.7-1.9,0.7-3.1c0-0.9-0.1-1.7-0.4-2.3c-0.3-0.7-0.6-1.3-1.2-1.8c-0.5-0.5-1.1-1-1.8-1.4
		s-1.5-0.8-2.3-1.2c-0.6-0.3-1.2-0.5-1.8-0.8c-0.5-0.3-0.9-0.5-1.3-0.8c-0.4-0.3-0.6-0.5-0.8-0.8s-0.3-0.6-0.3-1
		c0-0.3,0.1-0.6,0.3-0.9s0.4-0.5,0.7-0.7s0.7-0.3,1.2-0.4s1-0.2,1.6-0.2c0.4,0,0.8,0,1.3,0.1c0.4,0.1,0.9,0.2,1.4,0.3
		c0.5,0.1,0.9,0.3,1.4,0.5c0.4,0.2,0.8,0.4,1.2,0.7v-4.6c-0.7-0.3-1.6-0.5-2.4-0.6c-0.9-0.1-1.9-0.2-3-0.2c-1.2,0-2.2,0.1-3.3,0.4
		s-2,0.6-2.7,1.2c-0.8,0.5-1.4,1.2-1.9,2s-0.7,1.8-0.7,2.9c0,1.5,0.4,2.7,1.3,3.7c0.8,1.1,2.1,1.9,3.8,2.6c0.7,0.3,1.3,0.5,1.9,0.8
		s1.1,0.5,1.5,0.8s0.7,0.6,1,0.9c0.2,0.3,0.4,0.7,0.4,1.2c0,0.3-0.1,0.6-0.2,0.9c-0.1,0.3-0.4,0.5-0.7,0.7s-0.7,0.3-1.2,0.5
		c-0.5,0.1-1,0.2-1.7,0.2c-1.1,0-2.1-0.2-3.1-0.6c-1.1-0.4-2-0.9-2.9-1.7H720.5L720.5,1393.3z M712.3,1381.3h6.2v-4H701v4h6.2v17.9
		h5L712.3,1381.3L712.3,1381.3z"/>
</g>
</svg>
