<?xml version="1.0" encoding="utf-8"?>
<!-- Generator: Adobe Illustrator 27.6.1, SVG Export Plug-In . SVG Version: 6.00 Build 0)  -->
<svg version="1.1" id="Calque_1" xmlns="http://www.w3.org/2000/svg" xmlns:xlink="http://www.w3.org/1999/xlink" x="0px" y="0px"
	 viewBox="0 0 93 93" style="enable-background:new 0 0 93 93;" xml:space="preserve">
<style type="text/css">
	.st0{fill:none;stroke:#BCABDD;stroke-width:0.9786;stroke-miterlimit:10;}
	.st1{fill:#BCABDD;}
</style>
<g>
	<path class="st0" d="M64.6,1.1H28.4C13.2,1.1,1,13.3,1,28.5v36.2c0,15.2,12.2,27.4,27.4,27.4h36.2C79.8,92.1,92,79.9,92,64.7V28.5
		C92,13.3,79.8,1.1,64.6,1.1z M91,64.7c0,14.6-11.8,26.4-26.4,26.4H28.4C13.8,91.1,2,79.3,2,64.7V28.5C2,13.9,13.8,2.1,28.4,2.1
		h36.2C79.2,2.1,91,13.9,91,28.5V64.7z"/>
	<path class="st0" d="M64.6,2.1H28.4C13.8,2.1,2,13.9,2,28.5v36.2c0,14.6,11.8,26.4,26.4,26.4h36.2C79.2,91.1,91,79.3,91,64.7V28.5
		C91,13.9,79.2,2.1,64.6,2.1z M71,66.3c0,2.6-2.2,4.8-4.8,4.8H26.8c-2.6,0-4.8-2.2-4.8-4.8V26.9c0-2.6,2.2-4.8,4.8-4.8h39.3
		c2.6,0,4.8,2.2,4.8,4.8V66.3z"/>
	<path class="st1" d="M66.2,22.1H26.8c-2.6,0-4.8,2.2-4.8,4.8v39.3c0,2.6,2.2,4.8,4.8,4.8h39.3c2.6,0,4.8-2.2,4.8-4.8V26.9
		C71,24.3,68.8,22.1,66.2,22.1z M50.4,49.2h-6.1l-0.1,17.5h-4.9V49.2h-6.1v-3.9h17.1V49.2z M66.2,63.6c-0.4,0.8-1.1,1.5-1.9,2
		c-0.7,0.5-1.6,0.9-2.6,1.1s-2.1,0.3-3.2,0.3c-1.2,0-2.3-0.1-3.3-0.3c-1-0.2-2-0.5-2.7-0.9V61h0.1c0.9,0.8,1.8,1.3,2.8,1.7
		c1,0.4,2,0.6,3,0.6c0.7,0,1.2-0.1,1.7-0.2c0.5-0.2,0.9-0.3,1.2-0.5s0.6-0.4,0.7-0.7c0.1-0.3,0.2-0.6,0.2-0.9c0-0.5-0.2-0.9-0.4-1.2
		c-0.3-0.3-0.6-0.6-1-0.9c-0.4-0.3-0.9-0.5-1.5-0.8c-0.6-0.3-1.2-0.5-1.9-0.8c-1.7-0.7-2.9-1.5-3.7-2.5c-0.9-1-1.3-2.2-1.3-3.6
		c0-1.1,0.2-2.1,0.7-2.8s1.1-1.5,1.9-2c0.7-0.6,1.6-0.9,2.6-1.2c1.1-0.3,2.1-0.4,3.2-0.4c1.1,0,2.1,0.1,2.9,0.2
		c0.8,0.1,1.7,0.3,2.3,0.6v4.5c-0.4-0.3-0.8-0.5-1.2-0.7c-0.5-0.2-0.9-0.4-1.4-0.5c-0.5-0.1-1-0.2-1.4-0.3c-0.5-0.1-0.9-0.1-1.3-0.1
		c-0.6,0-1.1,0.1-1.6,0.2c-0.5,0.1-0.9,0.2-1.2,0.4c-0.3,0.2-0.5,0.4-0.7,0.7c-0.2,0.3-0.3,0.6-0.3,0.9c0,0.4,0.1,0.7,0.3,1
		c0.2,0.3,0.4,0.5,0.8,0.8c0.4,0.3,0.8,0.5,1.3,0.8c0.6,0.3,1.2,0.5,1.8,0.8c0.8,0.4,1.6,0.8,2.3,1.2s1.3,0.9,1.8,1.4
		c0.6,0.5,0.9,1.1,1.2,1.8c0.3,0.6,0.4,1.4,0.4,2.3C66.8,61.8,66.6,62.7,66.2,63.6z"/>
</g>
</svg>
