<svg xmlns="http://www.w3.org/2000/svg" width="93" height="93" viewBox="0 0 93 93">
  <g id="Groupe_9" data-name="Groupe 9" transform="translate(-469 -1649)">
    <g id="Rectangle_25" data-name="Rectangle 25" transform="translate(469 1649)" fill="none" stroke="#bcabdd" stroke-width="2">
      <rect width="93" height="93" rx="28" stroke="none"/>
      <rect x="1" y="1" width="91" height="91" rx="27" fill="none"/>
    </g>
    <path id="Tracé_1" data-name="Tracé 1" d="M350,325a25,25,0,1,0,25,25A25.009,25.009,0,0,0,350,325Zm-22.467,25a22.689,22.689,0,0,1,1.933-9.167L340.2,370.2A22.38,22.38,0,0,1,327.533,350ZM350,372.467a22.048,22.048,0,0,1-6.333-.933l6.733-19.6,6.9,18.933a1.353,1.353,0,0,0,.167.3A21.316,21.316,0,0,1,350,372.467Zm3.1-33c1.367-.067,2.567-.2,2.567-.2a.936.936,0,0,0-.133-1.867s-3.633.3-6,.3c-2.2,0-5.933-.3-5.933-.3a.936.936,0,0,0-.133,1.867s1.133.133,2.367.2l3.5,9.6L344.4,363.8l-8.167-24.333c1.367-.067,2.567-.2,2.567-.2a.936.936,0,0,0-.133-1.867s-3.633.3-6,.3c-.433,0-.933,0-1.433-.033a22.444,22.444,0,0,1,33.933-4.233c-.1,0-.2-.033-.3-.033a3.9,3.9,0,0,0-3.767,4c0,1.833,1.067,3.433,2.2,5.267a11.778,11.778,0,0,1,1.867,6.2c0,1.933-.733,4.167-1.7,7.267l-2.233,7.5Zm8.2,29.967,6.867-19.833a21.466,21.466,0,0,0,1.7-8.067,16.2,16.2,0,0,0-.167-2.3,22.23,22.23,0,0,1,2.767,10.8A22.48,22.48,0,0,1,361.3,369.433Z" transform="translate(166 1346)" fill="#bcabdd"/>
  </g>
</svg>
