<?xml version="1.0" encoding="UTF-8"?>
<svg xmlns="http://www.w3.org/2000/svg" xmlns:xlink="http://www.w3.org/1999/xlink" viewBox="0 0 437.37 434.37">
  <defs>
    <style>
      .cls-1, .cls-2, .cls-3, .cls-4 {
        stroke-linecap: round;
        stroke-linejoin: round;
      }

      .cls-1, .cls-2, .cls-3, .cls-4, .cls-5 {
        fill: none;
      }

      .cls-1, .cls-3, .cls-5 {
        stroke: #a0a09f;
      }

      .cls-6 {
        fill: #efefef;
      }

      .cls-7 {
        fill: #bca186;
      }

      .cls-8 {
        fill: #ddbe9b;
      }

      .cls-9 {
        fill: #422e1b;
      }

      .cls-10 {
        fill: #191728;
      }

      .cls-11 {
        fill: #2f2e42;
      }

      .cls-2 {
        stroke: #8e735b;
      }

      .cls-2, .cls-3, .cls-4, .cls-5 {
        stroke-width: 2px;
      }

      .cls-4 {
        stroke: #191728;
      }

      .cls-5 {
        stroke-miterlimit: 10;
      }

      .cls-12 {
        fill: url(#Dégradé_sans_nom_425);
      }
    </style>
    <radialGradient id="Dégradé_sans_nom_425" data-name="Dégradé sans nom 425" cx="218.68" cy="216.42" fx="218.68" fy="216.42" r="217.56" gradientUnits="userSpaceOnUse">
      <stop offset="0" stop-color="#110f1e"/>
      <stop offset=".27" stop-color="#171324"/>
      <stop offset=".64" stop-color="#a582ba"/>
      <stop offset=".99" stop-color="#25142c"/>
    </radialGradient>
  </defs>
  <g id="Calque_2" data-name="Calque 2">
    <ellipse class="cls-12" cx="218.68" cy="216.42" rx="218.68" ry="216.42"/>
  </g>
  <g id="Calque_8" data-name="Calque 8">
    <path class="cls-9" d="M169.51,250.61c-3.57,3.11-27.63,24.33-23.46,32.16,3.28,6.17,25.85,7.34,31.65-6.67,3.33-8.05,.23-18.94-8.19-25.49Z"/>
    <path class="cls-9" d="M178.95,276.23c-3.32,2.77-25.09,21.16-21.77,27.56,3.35,6.46,32.91,1.87,34.77-9.82,1.31-8.25-11.66-16.87-13-17.73Z"/>
    <path class="cls-9" d="M266.13,246.5c3.89,2.7,30.16,21.12,26.89,29.36-2.58,6.49-24.88,10.16-32.2-3.12-4.2-7.63-2.33-18.8,5.31-26.24Z"/>
    <path class="cls-9" d="M259.58,273c3.61,2.39,27.28,18.25,24.7,24.97-2.61,6.79-32.5,5.51-35.65-5.9-2.22-8.05,9.72-18.06,10.95-19.07Z"/>
  </g>
  <g id="Calque_9" data-name="Calque 9">
    <path class="cls-8" d="M192.24,293.33l-3.18,30.43c1.68,1.9,13.15,14.39,31.89,14.23,17.85-.15,28.83-11.66,30.64-13.62l-4.54-40.42-54.8,9.39Z"/>
  </g>
  <g id="Calque_10" data-name="Calque 10">
    <path class="cls-7" d="M191.87,296.84c-.43,4.07-.85,8.14-1.28,12.21,9.4,1.85,30.19,4.42,49.18-7.04,3.25-1.96,6.09-4.11,8.58-6.33l-.24-2.12-56.25,3.28Z"/>
  </g>
  <g id="Calque_6" data-name="Calque 6">
    <path class="cls-9" d="M150.95,197s-2.6,5.41-.9,14c1.7,8.59,1.93,9.08,1.93,9.08l9.62,2.78-3.13-20.42-.97-2.43-6.55-3Z"/>
    <path class="cls-9" d="M278.85,190.83s2.7,5.42,.93,14.04-2,9.11-2,9.11l-9.99,2.79,3.25-20.49,1-2.44,6.8-3.01Z"/>
  </g>
  <g id="Calque_5" data-name="Calque 5">
    <path class="cls-8" d="M156.59,198.78c1,7.22,2,14.44,2.99,21.65-.55-.28-8.41-4.17-15.03,0-4.43,2.8-5.62,7.51-5.98,8.95-2.19,8.69,3.1,18.29,10.3,23.16,5.34,3.61,10.95,4.1,14.08,4.08,.59,4.49,2.13,11.86,6.73,19.69,1.39,2.36,7.18,11.79,18.97,18.77,14.5,8.58,28.69,7.9,32.95,7.55,5.27-.44,24.67-2.82,38.26-19.79,10.5-13.12,11.51-27.43,11.63-32.54,2.74,0,7.01-.42,11.32-2.86,8.05-4.54,12.9-14.19,11.63-22.95-.29-2.03-.9-6.18-4.28-9.28-4.2-3.85-10.98-4.54-17.55-1.94-.41-7.72-.82-15.44-1.22-23.16-21.19-1.12-42.37-2.24-63.56-3.37-17.08,4.01-34.17,8.02-51.25,12.03Z"/>
  </g>
  <g id="Calque_16" data-name="Calque 16">
    <path class="cls-10" d="M72.3,434.37H368.39c.07-3.93,0-9.7-.66-16.62-1.46-15.08-4.03-41.56-19.95-58.24-4.59-4.81-9.31-7.77-43.32-18.93-21.44-7.03-39.58-12.42-52.87-16.21-.29-2.62-.57-5.24-.86-7.87-5.45,2.66-16.1,6.96-30.13,6.97-14.42,0-25.3-4.52-30.76-7.23-.26,2.51-.52,5.02-.79,7.52-18.57,6.44-33.57,10.98-43.54,13.85-21.15,6.11-33.55,8.77-47.79,19.3-5.95,4.4-9.89,7.32-13.72,12.81-3.26,4.69-7.22,12.38-10.34,46.55-.69,7.51-1.1,13.76-1.35,18.1Z"/>
  </g>
  <g id="Calque_20" data-name="Calque 20">
    <path class="cls-11" d="M189.83,316.23c-.12,1.2-.25,2.39-.37,3.59,5.86,2.68,16.76,6.73,30.96,6.74,14.03,0,24.83-3.95,30.68-6.59-.13-1.16-.25-2.31-.38-3.47-5.44,2.65-16.22,7.03-30.47,6.97-14.25-.06-25.01-4.53-30.42-7.23Z"/>
  </g>
  <g id="Calque_11" data-name="Calque 11">
    <path class="cls-6" d="M202.63,265.67c4.2,.27,10.37,.19,17.51-1.65,7.42-1.91,13.02-4.98,16.61-7.32,.21,1.84,.37,5.49-1.45,9.38-2.67,5.73-8.44,9.42-14.34,10.01-7.36,.73-14.67-3.4-18.33-10.42Z"/>
  </g>
  <g id="Calque_12" data-name="Calque 12">
    <ellipse class="cls-11" cx="193.67" cy="225.36" rx="4.38" ry="6.64"/>
    <ellipse class="cls-11" cx="240.61" cy="223.24" rx="4.38" ry="6.64"/>
  </g>
  <g id="Calque_13" data-name="Calque 13">
    <path class="cls-11" d="M198.99,205.71c.11-.81-1.21-1.67-2.14-2.08-4.18-1.83-9.64,1.6-10.59,2.19-3.93,2.47-6.53,6.17-6.03,6.68,.24,.24,1.04-.37,4.32-1.74,2.16-.9,3.7-1.54,5.74-2.08,2.05-.54,2.36-.37,4.68-1.03,2.31-.65,3.9-1.12,4.01-1.94Z"/>
    <path class="cls-11" d="M231.31,203.99c-.19-.78,1.19-1.91,2.41-2.48,3.31-1.55,7.28,.16,9.04,.92,.38,.17,.88,.38,1.53,.75,3.95,2.23,6.31,6,5.84,6.51-.23,.25-.96-.47-3.93-1.72-1.5-.63-3.02-1.26-5.07-1.7-1.37-.29-2.91-.49-3.6-.58-1.37-.17-1.49-.14-2.32-.28-1.85-.31-3.71-.62-3.9-1.43Z"/>
  </g>
  <g id="Calque_15" data-name="Calque 15">
    <path class="cls-2" d="M143.68,231.05s13.12-3.51,14.72,8.51"/>
    <path class="cls-2" d="M146.45,239.07s2.32-5.64,10.69-3.66"/>
    <path class="cls-2" d="M289.33,223.39s-13.4-2.21-13.81,9.91"/>
    <path class="cls-2" d="M287.36,231.65s-2.86-5.39-10.99-2.6"/>
  </g>
  <g id="Calque_14" data-name="Calque 14">
    <path class="cls-2" d="M215.39,227.72s.76,9.02,0,10.78-4.66,5.66-3.44,10.32,7.26,4.97,10.78,3.29"/>
  </g>
  <g id="Calque_7" data-name="Calque 7">
    <path class="cls-9" d="M156.37,200.75c1.07,9.07,1.97,15.48,2.62,19.72,.49,3.21,.73,4.56,.98,7.15,.69,7.02,.28,11.05,1.03,11.16,.28,.04,.67-.43,2.58-5.65,1.64-4.51,2.54-6.96,3.85-11.63,1.1-3.9,1.64-5.85,2.06-8.04,.43-2.25,1.48-8.45,.6-16.41-.45-4.04-.69-6.07-1.86-6.58-2.6-1.14-7.77,4.83-11.86,10.28Z"/>
    <path class="cls-9" d="M272.59,194.23c.13,6.68,.18,12.12,.19,15.91,.04,8.64-.08,8.82,.09,12.03,.37,6.88,1.15,10.98,.39,11.2-.27,.08-.72-.34-3.27-5.28-2.2-4.27-3.4-6.58-5.29-11.05-1.58-3.73-2.37-5.59-3.06-7.72-.71-2.18-2.54-8.19-2.67-16.2-.07-4.05-.09-6.09,1.01-6.77,2.67-1.65,9.34,4.58,12.61,7.86Z"/>
  </g>
  <g id="Calque_17" data-name="Calque 17">
    <path class="cls-5" d="M208.08,226.96c-.17,1.2-1.04,7.09-5.96,10.53-3.12,2.18-6.37,2.24-8.55,2.28-2.52,.05-6.2,.11-9.4-2.44-3.89-3.09-4.51-7.98-4.84-10.56-.39-3.05-.91-7.17,1.63-10.37,2.43-3.07,6.26-3.49,10.56-3.96,5.15-.57,10.21-1.12,13.53,2.23,4.06,4.1,3.13,11.63,3.03,12.3Z"/>
    <path class="cls-5" d="M226.49,227.01c.3,1.17,1.81,6.94,7.07,9.82,3.34,1.83,6.57,1.54,8.75,1.34,2.51-.23,6.17-.57,9.08-3.45,3.53-3.49,3.61-8.42,3.66-11.03,.05-3.07,.13-7.23-2.75-10.14-2.75-2.79-6.61-2.79-10.93-2.79-5.18,0-10.27,0-13.21,3.68-3.59,4.51-1.84,11.9-1.67,12.56Z"/>
    <path class="cls-3" d="M208.31,222.99c1.49-.67,3.39-1.33,5.64-1.71,5.17-.88,9.46,.17,11.86,.98"/>
    <path class="cls-3" d="M178.93,223.39c-6.48-1.39-12.96-2.78-19.44-4.17"/>
    <line class="cls-3" x1="255.37" y1="221.97" x2="271.91" y2="212.85"/>
  </g>
  <g id="Calque_18" data-name="Calque 18">
    <path class="cls-1" d="M150.59,254.16c.53,2.36,2.63,3.87,4.69,3.59,1.75-.24,3.45-1.78,3.48-3.9,.03-1.9-1.31-3.63-3.19-4.06"/>
    <path class="cls-1" d="M284.29,247.18c.43,2.38-.91,4.59-2.92,5.14-1.7,.46-3.87-.29-4.72-2.23-.76-1.74-.22-3.85,1.35-4.98"/>
  </g>
  <g id="Calque_4" data-name="Calque 4">
    <path class="cls-11" d="M147.77,178.43c1.01-5.88,4.13-19.23,15.13-31.5,1.97-2.2,11.08-12.04,26.71-17.58,8.23-2.92,14.93-3.45,18.69-3.73,6.34-.46,26.09-1.62,45.02,10.73,2.63,1.72,4.56,3.24,5.64,4.14,13.2,10.89,18.86,24.47,21.43,32.74-25.44,2.78-50.88,5.55-76.32,8.33h0l-56.29-.96v-2.17Z"/>
  </g>
  <g id="Calque_3" data-name="Calque 3">
    <path class="cls-10" d="M142.58,201.46c3.41,6.53,28.11-4.9,57.53-7.91,29.48-3.01,75.17,1.26,78.82,2.12,.24,.06,1.35,.35,2.74,.1,1.65-.3,3.06-1.25,3.91-2.2,.89-1,1.07-1.88,1.62-8.08,.46-5.17,.52-6.57-.1-8.52-.04-.14-.59-1.82-1.42-3.05-2.97-4.4-10.59-4.46-13.47-4.49-11.71-.12-23.42-.86-35.13-.82-10.54,.03-10.3-.28-18.3-.09-2.96,.07-11.56,.31-23.82,1.45-13.97,1.29-21.69,2.73-34.59,5.13-12.49,2.32-19.12,4.04-20.35,8.38-.29,1.03,.14,3.81,1.01,9.33,.86,5.44,1.3,8.17,1.55,8.66Z"/>
  </g>
  <g id="Calque_19" data-name="Calque 19">
    <path class="cls-4" d="M214.14,132.65s6.73,35.52,3.8,41.64"/>
    <path class="cls-4" d="M224.12,131.46s21.08,19.93,20.87,41.57"/>
    <path class="cls-4" d="M231.29,130.19s31.99,13.87,36.5,45.46"/>
    <path class="cls-4" d="M195.96,130.19s-37.27,14.81-38.58,51.38"/>
    <path class="cls-4" d="M204.45,132.31s-19.79,16.83-20.28,47.13"/>
  </g>
</svg>