<svg xmlns="http://www.w3.org/2000/svg" viewBox="0 0 284.62 314.84"><defs><style>.cls-1,.cls-2,.cls-3{fill:none;stroke-linecap:round;stroke-linejoin:round;stroke-width:12px;}.cls-1{stroke:#fff;}.cls-2{stroke:#3fc;}.cls-3{stroke:#a4f2ff;}</style></defs><g id="Calque_3" data-name="Calque 3"><path class="cls-1" d="M351.81,302.22" transform="translate(-211.66 -146.41)"/><rect class="cls-2" x="10.33" y="9.23" width="268.29" height="299.61" rx="57.83"/><rect class="cls-1" x="6" y="6" width="268.29" height="299.61" rx="57.83"/><path class="cls-3" d="M356.14,305.45" transform="translate(-211.66 -146.41)"/><polyline class="cls-2" points="67.33 58.9 67.33 190.31 143.86 190.31"/><path class="cls-2" d="M279,406.7l51,.13" transform="translate(-211.66 -146.41)"/><path class="cls-2" d="M433.29,411.85V199.66S355.52,191,355.52,239s73.93,35.52,73.93,35.52l-73.93,132.5" transform="translate(-211.66 -146.41)"/><polyline class="cls-1" points="62.99 55.67 62.99 187.08 139.53 187.08"/><path class="cls-1" d="M274.65,403.47l51,.13" transform="translate(-211.66 -146.41)"/><path class="cls-1" d="M429,408.62V196.43s-77.77-8.64-77.77,39.37,73.93,35.52,73.93,35.52l-73.93,132.5" transform="translate(-211.66 -146.41)"/></g></svg>