<?xml version="1.0" encoding="utf-8"?>
<!-- Generator: Adobe Illustrator 27.0.0, SVG Export Plug-In . SVG Version: 6.00 Build 0)  -->
<svg version="1.1" id="Calque_1" xmlns="http://www.w3.org/2000/svg" xmlns:xlink="http://www.w3.org/1999/xlink" x="0px" y="0px"
	 viewBox="0 0 63 55" style="enable-background:new 0 0 63 55;" xml:space="preserve">
<style type="text/css">
	.st0{fill:#FFFFFF;}
	.st1{fill:none;}
	.st2{fill:#906EC7;}
</style>
<g>
	<g transform="matrix(1, 0, 0, 1, 0, 0)">
		<g id="Polygone_1-2" transform="translate(63 55) rotate(180)">
			<path class="st0" d="M37.6,10.6C35.7,7.3,31.4,6.1,28,8c-1.1,0.6-2,1.5-2.6,2.6L6,44.5c-1.9,3.4-0.8,7.6,2.6,9.6
				c1.1,0.6,2.3,0.9,3.5,0.9h38.8c3.9,0,7-3.1,7-7c0-1.2-0.3-2.4-0.9-3.5L37.6,10.6z"/>
			<path class="st0" d="M31.5,10.1c1.5,0,2.7,0.8,3.5,2L54.4,46c0.7,1.3,0.7,2.7,0,4c-0.7,1.3-2,2-3.5,2H12.1c-1.5,0-2.7-0.7-3.5-2
				c-0.7-1.3-0.7-2.7,0-4L28,12.1C28.8,10.8,30,10.1,31.5,10.1 M31.5,7.1c-2.4,0-4.7,1.2-6.1,3.5L6,44.5C3.3,49.2,6.7,55,12.1,55
				h38.8c5.4,0,8.7-5.8,6.1-10.5L37.6,10.6C36.2,8.3,33.9,7.1,31.5,7.1z"/>
		</g>
	</g>
	<g id="Polygone_1-3" transform="translate(63 55) rotate(180)">
		<path class="st1" d="M37.6,10.6C35.7,7.3,31.4,6.1,28,8c-1.1,0.6-2,1.5-2.6,2.6L6,44.5c-1.9,3.4-0.8,7.6,2.6,9.6
			c1.1,0.6,2.3,0.9,3.5,0.9h38.8c3.9,0,7-3.1,7-7c0-1.2-0.3-2.4-0.9-3.5L37.6,10.6z"/>
		<path class="st2" d="M31.5,10.1c1.5,0,2.7,0.8,3.5,2L54.4,46c0.7,1.3,0.7,2.7,0,4c-0.7,1.3-2,2-3.5,2H12.1c-1.5,0-2.7-0.7-3.5-2
			c-0.7-1.3-0.7-2.7,0-4L28,12.1C28.8,10.8,30,10.1,31.5,10.1 M31.5,7.1c-2.4,0-4.7,1.2-6.1,3.5L6,44.5C3.3,49.2,6.7,55,12.1,55
			h38.8c5.4,0,8.7-5.8,6.1-10.5L37.6,10.6C36.2,8.3,33.9,7.1,31.5,7.1z"/>
	</g>
</g>
</svg>
