<svg xmlns="http://www.w3.org/2000/svg" xmlns:xlink="http://www.w3.org/1999/xlink" width="63" height="55" viewBox="0 0 63 55">
  <defs>
    <style>
      .cls-1 {
        fill: #fff;
      }

      .cls-2 {
        fill: none;
      }

      .cls-3, .cls-4 {
        stroke: none;
      }

      .cls-4 {
        fill: #906ec7;
      }

      .cls-5 {
        filter: url(#Polygone_1);
      }
    </style>
    <filter id="Polygone_1">
      <feOffset dy="3" input="SourceAlpha"/>
      <feGaussianBlur stdDeviation="3" result="blur"/>
      <feFlood flood-color="#fff" flood-opacity="0.451" result="color"/>
      <feComposite operator="out" in="SourceGraphic" in2="blur"/>
      <feComposite operator="in" in="color"/>
      <feComposite operator="in" in2="SourceGraphic"/>
    </filter>
  </defs>
  <g data-type="innerShadowGroup">
    <g class="cls-5" transform="matrix(1, 0, 0, 1, 0, 0)">
      <g id="Polygone_1-2" data-name="Polygone 1" class="cls-1" transform="translate(63 55) rotate(180)">
        <path class="cls-3" d="M25.426,10.606a7,7,0,0,1,12.149,0L57,44.521A7,7,0,0,1,50.924,55H12.076A7,7,0,0,1,6,44.521Z"/>
        <path class="cls-3" d="M 31.49999809265137 10.08483505249023 C 30.04811859130859 10.08483505249023 28.75053787231445 10.83700561523438 28.02896881103516 12.09688568115234 L 8.604827880859375 46.01204299926758 C 7.876888275146484 47.28306579589844 7.88067626953125 48.73881530761719 8.615238189697266 50.00601196289062 C 9.349796295166016 51.27321624755859 10.61114883422852 51.99999237060547 12.07585906982422 51.99999237060547 L 50.92412948608398 51.99999237060547 C 52.38884735107422 51.99999237060547 53.65019989013672 51.27321624755859 54.38475799560547 50.00600433349609 C 55.11930847167969 48.73880386352539 55.12310791015625 47.28306579589844 54.39515686035156 46.01204299926758 L 34.97102737426758 12.09689331054688 C 34.24945831298828 10.83700561523438 32.95186614990234 10.08483505249023 31.49999809265137 10.08483505249023 M 31.4999942779541 7.0848388671875 C 33.86493682861328 7.0848388671875 36.22988128662109 8.258533477783203 37.57429885864258 10.60592269897461 L 56.99842834472656 44.52108383178711 C 59.67113876342773 49.18771362304688 56.30192947387695 54.99999237060547 50.92412948608398 54.99999237060547 L 12.07585906982422 54.99999237060547 C 6.69805908203125 54.99999237060547 3.328857421875 49.18771362304688 6.001556396484375 44.52108383178711 L 25.42569732666016 10.60592269897461 C 26.77010726928711 8.258533477783203 29.13505172729492 7.0848388671875 31.4999942779541 7.0848388671875 Z"/>
      </g>
    </g>
    <g id="Polygone_1-3" data-name="Polygone 1" class="cls-2" transform="translate(63 55) rotate(180)">
      <path class="cls-3" d="M25.426,10.606a7,7,0,0,1,12.149,0L57,44.521A7,7,0,0,1,50.924,55H12.076A7,7,0,0,1,6,44.521Z"/>
      <path class="cls-4" d="M 31.49999809265137 10.08483505249023 C 30.04811859130859 10.08483505249023 28.75053787231445 10.83700561523438 28.02896881103516 12.09688568115234 L 8.604827880859375 46.01204299926758 C 7.876888275146484 47.28306579589844 7.88067626953125 48.73881530761719 8.615238189697266 50.00601196289062 C 9.349796295166016 51.27321624755859 10.61114883422852 51.99999237060547 12.07585906982422 51.99999237060547 L 50.92412948608398 51.99999237060547 C 52.38884735107422 51.99999237060547 53.65019989013672 51.27321624755859 54.38475799560547 50.00600433349609 C 55.11930847167969 48.73880386352539 55.12310791015625 47.28306579589844 54.39515686035156 46.01204299926758 L 34.97102737426758 12.09689331054688 C 34.24945831298828 10.83700561523438 32.95186614990234 10.08483505249023 31.49999809265137 10.08483505249023 M 31.4999942779541 7.0848388671875 C 33.86493682861328 7.0848388671875 36.22988128662109 8.258533477783203 37.57429885864258 10.60592269897461 L 56.99842834472656 44.52108383178711 C 59.67113876342773 49.18771362304688 56.30192947387695 54.99999237060547 50.92412948608398 54.99999237060547 L 12.07585906982422 54.99999237060547 C 6.69805908203125 54.99999237060547 3.328857421875 49.18771362304688 6.001556396484375 44.52108383178711 L 25.42569732666016 10.60592269897461 C 26.77010726928711 8.258533477783203 29.13505172729492 7.0848388671875 31.4999942779541 7.0848388671875 Z"/>
    </g>
  </g>
</svg>
