<?xml version="1.0" encoding="utf-8"?>
<!-- Generator: Adobe Illustrator 27.0.0, SVG Export Plug-In . SVG Version: 6.00 Build 0)  -->
<svg version="1.1" id="Calque_1" xmlns="http://www.w3.org/2000/svg" xmlns:xlink="http://www.w3.org/1999/xlink" x="0px" y="0px"
	 viewBox="0 0 63 55" style="enable-background:new 0 0 63 55;" xml:space="preserve">
<style type="text/css">
	.st0{filter:url(#Polygone_1);}
	.st1{fill:#FFFFFF;}
	.st2{fill:none;}
	.st3{fill:#906EC7;}
</style>
<filter  id="Polygone_1">
	<feOffset  dy="3" input="SourceAlpha"></feOffset>
	<feGaussianBlur  result="blur" stdDeviation="3"></feGaussianBlur>
	<feFlood  flood-color="#fff" flood-opacity="0.451" result="color"></feFlood>
	<feComposite  in="SourceGraphic" in2="blur" operator="out"></feComposite>
	<feComposite  in="color" operator="in"></feComposite>
	<feComposite  in2="SourceGraphic" operator="in"></feComposite>
</filter>
<g>
	<g transform="matrix(1, 0, 0, 1, 0, 0)" class="st0">
		<g id="Polygone_1-2_00000109734886941330227630000004214601705184735410_" transform="translate(63 55) rotate(180)">
			<path class="st1" d="M25.4,10.6C27.3,7.3,31.6,6.1,35,8c1.1,0.6,2,1.5,2.6,2.6L57,44.5c1.9,3.4,0.8,7.6-2.6,9.6
				c-1.1,0.6-2.3,0.9-3.5,0.9H12.1c-3.9,0-7-3.1-7-7c0-1.2,0.3-2.4,0.9-3.5L25.4,10.6z"/>
			<path class="st1" d="M31.5,10.1c-1.5,0-2.7,0.8-3.5,2L8.6,46c-0.7,1.3-0.7,2.7,0,4c0.7,1.3,2,2,3.5,2h38.8c1.5,0,2.7-0.7,3.5-2
				c0.7-1.3,0.7-2.7,0-4L35,12.1C34.2,10.8,33,10.1,31.5,10.1 M31.5,7.1c2.4,0,4.7,1.2,6.1,3.5L57,44.5c2.7,4.7-0.7,10.5-6.1,10.5
				H12.1C6.7,55,3.3,49.2,6,44.5l19.4-33.9C26.8,8.3,29.1,7.1,31.5,7.1z"/>
		</g>
	</g>
	<g id="Polygone_1-3" transform="translate(63 55) rotate(180)">
		<path class="st2" d="M25.4,10.6C27.3,7.3,31.6,6.1,35,8c1.1,0.6,2,1.5,2.6,2.6L57,44.5c1.9,3.4,0.8,7.6-2.6,9.6
			c-1.1,0.6-2.3,0.9-3.5,0.9H12.1c-3.9,0-7-3.1-7-7c0-1.2,0.3-2.4,0.9-3.5L25.4,10.6z"/>
		<path class="st3" d="M31.5,10.1c-1.5,0-2.7,0.8-3.5,2L8.6,46c-0.7,1.3-0.7,2.7,0,4c0.7,1.3,2,2,3.5,2h38.8c1.5,0,2.7-0.7,3.5-2
			c0.7-1.3,0.7-2.7,0-4L35,12.1C34.2,10.8,33,10.1,31.5,10.1 M31.5,7.1c2.4,0,4.7,1.2,6.1,3.5L57,44.5c2.7,4.7-0.7,10.5-6.1,10.5
			H12.1C6.7,55,3.3,49.2,6,44.5l19.4-33.9C26.8,8.3,29.1,7.1,31.5,7.1z"/>
	</g>
</g>
</svg>
