<?xml version="1.0" encoding="utf-8"?>
<!-- Generator: Adobe Illustrator 27.0.0, SVG Export Plug-In . SVG Version: 6.00 Build 0)  -->
<svg version="1.1" id="Calque_1" xmlns="http://www.w3.org/2000/svg" xmlns:xlink="http://www.w3.org/1999/xlink" x="0px" y="0px"
	 viewBox="0 0 63 55" style="enable-background:new 0 0 63 55;" xml:space="preserve">
<style type="text/css">
	.st0{filter:url(#Polygone_1);}
	.st1{fill:#FFFFFF;}
	.st2{fill:none;}
	.st3{fill:#906EC7;}
</style>
<filter  id="Polygone_1">
	<feOffset  dy="3" input="SourceAlpha"></feOffset>
	<feGaussianBlur  result="blur" stdDeviation="3"></feGaussianBlur>
	<feFlood  flood-color="#fff" flood-opacity="0.451" result="color"></feFlood>
	<feComposite  in="SourceGraphic" in2="blur" operator="out"></feComposite>
	<feComposite  in="color" operator="in"></feComposite>
	<feComposite  in2="SourceGraphic" operator="in"></feComposite>
</filter>
<g>
	<g transform="matrix(1, 0, 0, 1, 0, 0)" class="st0">
		<g id="Polygone_1-2_00000168815190722114713990000013477851371596895898_" transform="translate(63 55) rotate(180)">
			<path class="st1" d="M37.6,51.5c-1.9,3.4-6.2,4.5-9.6,2.6c-1.1-0.6-2-1.5-2.6-2.6L6,17.6C4.1,14.2,5.2,9.9,8.6,8
				c1.1-0.6,2.3-0.9,3.5-0.9h38.8c3.9,0,7,3.1,7,7c0,1.2-0.3,2.4-0.9,3.5L37.6,51.5z"/>
			<path class="st1" d="M31.5,52c1.5,0,2.7-0.8,3.5-2l19.4-33.9c0.7-1.3,0.7-2.7,0-4c-0.7-1.3-2-2-3.5-2H12.1c-1.5,0-2.7,0.7-3.5,2
				c-0.7,1.3-0.7,2.7,0,4L28,50C28.8,51.2,30,52,31.5,52 M31.5,55c-2.4,0-4.7-1.2-6.1-3.5L6,17.6C3.3,12.9,6.7,7.1,12.1,7.1h38.8
				c5.4,0,8.7,5.8,6.1,10.5L37.6,51.5C36.2,53.8,33.9,55,31.5,55z"/>
		</g>
	</g>
	<g id="Polygone_1-3" transform="translate(63 55) rotate(180)">
		<path class="st2" d="M37.6,51.5c-1.9,3.4-6.2,4.5-9.6,2.6c-1.1-0.6-2-1.5-2.6-2.6L6,17.6C4.1,14.2,5.2,9.9,8.6,8
			c1.1-0.6,2.3-0.9,3.5-0.9h38.8c3.9,0,7,3.1,7,7c0,1.2-0.3,2.4-0.9,3.5L37.6,51.5z"/>
		<path class="st3" d="M31.5,52c1.5,0,2.7-0.8,3.5-2l19.4-33.9c0.7-1.3,0.7-2.7,0-4c-0.7-1.3-2-2-3.5-2H12.1c-1.5,0-2.7,0.7-3.5,2
			c-0.7,1.3-0.7,2.7,0,4L28,50C28.8,51.2,30,52,31.5,52 M31.5,55c-2.4,0-4.7-1.2-6.1-3.5L6,17.6C3.3,12.9,6.7,7.1,12.1,7.1h38.8
			c5.4,0,8.7,5.8,6.1,10.5L37.6,51.5C36.2,53.8,33.9,55,31.5,55z"/>
	</g>
</g>
</svg>
